<?xml version="1.0" encoding="UTF-8" standalone="no"?><!DOCTYPE svg PUBLIC "-//W3C//DTD SVG 1.1//EN" "http://www.w3.org/Graphics/SVG/1.1/DTD/svg11.dtd"><svg width="1000px" height="1000px" version="1.1" xmlns="http://www.w3.org/2000/svg" xmlns:xlink="http://www.w3.org/1999/xlink" xml:space="preserve" xmlns:serif="http://www.serif.com/" style="fill-rule:evenodd;clip-rule:evenodd;stroke-linejoin:round;stroke-miterlimit:1;"><g id="_9--Aenderungsmanagement-Baubetreuung" serif:id="9--Aenderungsmanagement&amp;Baubetreuung"></g><g id="_8--Sicherheitsnachweis" serif:id="8--Sicherheitsnachweis"></g><g id="_7--Schaltplanerstellung-Kabeldesign" serif:id="7--Schaltplanerstellung&amp;Kabeldesign"></g><g id="_6--SpezifikatioFuerKomponenten-Software" serif:id="6--SpezifikatioFuerKomponenten&amp;Software"></g><g id="_5--Systemkonzepte-Integration" serif:id="5--Systemkonzepte&amp;Integration"></g><g id="_4--Schnittstellenanalyse" serif:id="4--Schnittstellenanalyse"></g><g id="_3--Risikoanalyse" serif:id="3--Risikoanalyse"></g><g id="Ebene2"></g><g id="_1-1--Anforderungsmanagement" serif:id="1-1--Anforderungsmanagement" transform="matrix(0.390625,0,0,0.694444,0,-8.52651e-13)"><g id="_1--Anforderungsmanagement" serif:id="1--Anforderungsmanagement"><rect id="_1-1--Anforderungsmanagement1" serif:id="1-1--Anforderungsmanagement" x="0" y="0" width="2560" height="1440" style="fill:none;"/><clipPath id="_clip1"><rect id="_1-1--Anforderungsmanagement2" serif:id="1-1--Anforderungsmanagement" x="0" y="0" width="2560" height="1440"/></clipPath><g clip-path="url(#_clip1)"><g id="LOGO--Grenze" transform="matrix(2.56,0,0,1.44,3.63798e-12,-2102.4)"><path d="M500,1460C775.958,1460 1000,1684.04 1000,1960C1000,2235.96 775.958,2460 500,2460C224.042,2460 0,2235.96 0,1960C0,1684.04 224.042,1460 500,1460ZM500,1500C246.119,1500 40,1706.12 40,1960C40,2213.88 246.119,2420 500,2420C753.881,2420 960,2213.88 960,1960C960,1706.12 753.881,1500 500,1500Z" style="fill:rgb(15,49,87);"/></g><g transform="matrix(14.3771,0,0,8.08714,-6782.4,-2210.91)"><g transform="matrix(55.6439,0,0,55.6439,608.078,341.707)"></g><text x="512.25px" y="341.707px" style="font-family:'ArialMT', 'Arial', sans-serif;font-size:55.644px;fill:rgb(238,121,0);">DIN</text></g><g transform="matrix(18.3727,0,0,10.3346,-7599.83,-2603.72)"><g transform="matrix(43.543,0,0,43.543,536.467,341.707)"></g><text x="512.25px" y="341.707px" style="font-family:'ArialMT', 'Arial', sans-serif;font-size:43.543px;fill:rgb(238,121,0);">§</text></g><g transform="matrix(2.56,0,0,1.44,358.4,-190.091)"><path d="M-110,582.008L349.664,582.008C391.792,582.008 430.566,604.982 450.802,641.931C478.453,692.363 510,773.638 510,882.008L510,922.008L460,922.008L460,1002.01L282.77,1002.01C282.77,1002.01 279.092,993.932 274.693,984.272C265.744,964.621 246.141,952.008 224.548,952.008C155.568,952.008 10,952.008 10,952.008" style="fill:none;stroke:rgb(15,49,87);stroke-width:37.5px;"/></g><g transform="matrix(1.70667,0,0,0.906667,588.8,192.313)"><path d="M-285,582.008C-285,582.008 179.317,582.008 354.322,582.008C397.655,582.008 437.621,606.744 458.883,646.722C493.919,712.82 540,822.443 540,942.008L540,942.01C540,966.862 559.027,987.008 582.498,987.008L630,987.008" style="fill:none;stroke:rgb(15,49,87);stroke-width:32.13px;"/></g><g transform="matrix(3.84,0,0,1.2,179.2,100.8)"><path d="M166.667,780C164.899,780 163.203,778.736 161.953,776.485C160.702,774.235 160,771.183 160,768L160,552C160,548.817 160.702,545.765 161.953,543.515C163.203,541.264 164.899,540 166.667,540L213.333,540C215.101,540 216.797,541.264 218.047,543.515C219.298,545.765 220,548.817 220,552L220,768C220,771.183 219.298,774.235 218.047,776.485C216.797,778.736 215.101,780 213.333,780L166.667,780ZM173.889,755L206.111,755L206.111,565L173.889,565L173.889,755Z" style="fill:rgb(15,49,87);"/></g><g transform="matrix(3.84,0,0,0.33,179.2,930.6)"><path d="M166.667,780C162.985,780 160,760.463 160,736.364L160,583.636C160,559.537 162.985,540 166.667,540L213.333,540C217.015,540 220,559.537 220,583.636L220,736.364C220,760.463 217.015,780 213.333,780L166.667,780ZM173.889,689.091L206.111,689.091L206.111,630.909L173.889,630.909L173.889,689.091Z" style="fill:rgb(15,49,87);"/></g><g transform="matrix(3.41333,0,0,0.66,580.267,392.4)"><path d="M167.5,780C165.511,780 163.603,777.701 162.197,773.61C160.79,769.518 160,763.968 160,758.182L160,561.818C160,556.032 160.79,550.482 162.197,546.39C163.603,542.299 165.511,540 167.5,540L195.301,540C198.175,540 200.796,544.777 202.05,552.3L219.249,655.492C219.743,658.459 220,661.713 220,665.01L220,758.182C220,770.232 216.642,780 212.5,780L167.5,780ZM175.625,585.455L175.625,734.545L204.375,734.545L204.375,670.438L190.211,585.455L175.625,585.455Z" style="fill:rgb(15,49,87);"/></g><g transform="matrix(2.56,0,0,1.3824,384,44.352)"><path d="M140,520L140,770" style="fill:none;stroke:rgb(15,49,87);stroke-width:21.25px;stroke-linecap:round;"/></g><g transform="matrix(2.56,0,0,1.8,230.4,-216)"><path d="M140,520L140,730" style="fill:none;stroke:rgb(15,49,87);stroke-width:18.41px;"/></g><g transform="matrix(2.56,0,0,1.8,102.4,-216)"><path d="M140,520L140,730" style="fill:none;stroke:rgb(15,49,87);stroke-width:18.41px;"/></g><g transform="matrix(2.56,0,0,1.8,-25.6,-216)"><path d="M140,520L140,730" style="fill:none;stroke:rgb(15,49,87);stroke-width:18.41px;"/></g><g transform="matrix(2.56,0,0,1.64571,-153.6,-135.771)"><path d="M140,520L140,730" style="fill:none;stroke:rgb(15,49,87);stroke-width:19.4px;"/></g><g transform="matrix(2.56,0,0,1.3824,380.109,44.352)"><path d="M271.52,520L271.52,770" style="fill:none;stroke:rgb(15,49,87);stroke-width:21.25px;stroke-linecap:round;"/></g><g transform="matrix(2.87347,-5.24079e-17,-8.95158e-17,1.44,-31.3469,28.8)"><path d="M590,750L100,750" style="fill:none;stroke:rgb(15,49,87);stroke-width:19.6px;"/></g><g transform="matrix(1.70667,0,0,1.44,674.133,288)"><path d="M610,750L100,750" style="fill:none;stroke:rgb(15,49,87);stroke-width:24.51px;"/></g><g transform="matrix(3.52,0,0,1.98,-582.4,-493.2)"><path d="M420,860C442.077,860 460,877.923 460,900C460,922.077 442.077,940 420,940C397.923,940 380,922.077 380,900C380,877.923 397.923,860 420,860ZM420,881.212C409.631,881.212 401.212,889.631 401.212,900C401.212,910.369 409.631,918.788 420,918.788C430.369,918.788 438.788,910.369 438.788,900C438.788,889.631 430.369,881.212 420,881.212Z" style="fill:rgb(15,49,87);"/></g><g transform="matrix(2.56,0,0,1.92,0,-398.4)"><path d="M680,800L680,860" style="fill:none;stroke:rgb(15,49,87);stroke-width:17.68px;stroke-linecap:round;"/></g><g transform="matrix(2.24,0,0,1.44,217.6,8.18545e-14)"><path d="M680,830L600,830" style="fill:none;stroke:rgb(15,49,87);stroke-width:39.91px;"/></g></g></g></g></svg>