<?xml version="1.0" encoding="UTF-8" standalone="no"?><!DOCTYPE svg PUBLIC "-//W3C//DTD SVG 1.1//EN" "http://www.w3.org/Graphics/SVG/1.1/DTD/svg11.dtd"><svg width="1000px" height="1000px" version="1.1" xmlns="http://www.w3.org/2000/svg" xmlns:xlink="http://www.w3.org/1999/xlink" xml:space="preserve" xmlns:serif="http://www.serif.com/" style="fill-rule:evenodd;clip-rule:evenodd;stroke-linecap:round;stroke-linejoin:round;stroke-miterlimit:1;"><g transform="matrix(1,0,0,1,-1100,-2200.24)"><g id="_9--Aenderungsmanagement-Baubetreuung" serif:id="9--Aenderungsmanagement&amp;Baubetreuung"></g><g id="_8--Sicherheitsnachweis" serif:id="8--Sicherheitsnachweis"></g><g id="_7--Schaltplanerstellung-Kabeldesign" serif:id="7--Schaltplanerstellung&amp;Kabeldesign"></g><g id="_6--SpezifikatioFuerKomponenten-Software" serif:id="6--SpezifikatioFuerKomponenten&amp;Software"></g><g id="_5--Systemkonzepte-Integration" serif:id="5--Systemkonzepte&amp;Integration"></g><g id="_4--Schnittstellenanalyse" serif:id="4--Schnittstellenanalyse"></g><g id="_3--Risikoanalyse" serif:id="3--Risikoanalyse"></g><g id="_2-3---EntwicklungVonFahrzeugkonzepten" serif:id="2-3---EntwicklungVonFahrzeugkonzepten" transform="matrix(0.390625,0,0,0.694444,1100,2200.24)"><g id="Ebene2"><g id="_2--EntwicklungVonFahrzeugkonzepten" serif:id="2--EntwicklungVonFahrzeugkonzepten"><rect id="_2-3---EntwicklungVonFahrzeugkonzepten1" serif:id="2-3---EntwicklungVonFahrzeugkonzepten" x="0" y="0" width="2560" height="1440" style="fill:none;"/><g id="_2-3---EntwicklungVonFahrzeugkonzepten2" serif:id="2-3---EntwicklungVonFahrzeugkonzepten"><g transform="matrix(2.90628,0,0,1.63478,-3353.33,-3708.51)"><path d="M1628,2856.47L1696,2828.47" style="fill:none;stroke:rgb(15,49,87);stroke-width:11.01px;"/></g><g id="Bahn"><g transform="matrix(2.90628,0,0,1.63478,-3353.33,-3708.51)"><path d="M1796.03,2336.09L1508,2496.47C1508,2496.47 1464.72,2524.75 1436.49,2556.47C1398.46,2599.19 1352,2864.47 1352,2864.47C1352,2864.47 1344.19,2901.47 1344,2920.47C1343.81,2939.47 1346.22,2984.37 1364,2992.47C1383.92,3001.55 1411.85,3023.81 1480,3008.47C1511.99,3001.27 1588,2976.47 1588,2976.47L1740,2900.47L1768,2852.47L1967.73,2737.32L1999.43,2752.47" style="fill:none;stroke:rgb(15,49,87);stroke-width:33.03px;"/></g><g transform="matrix(2.90628,0,0,1.63478,-3353.33,-3708.51)"><path d="M1940.28,2461.41C1841.5,2515.82 1652.13,2619.75 1624,2632.47C1567.19,2658.16 1499.25,2645.75 1452,2620.47C1411.87,2599 1429.76,2563.93 1440,2552.62" style="fill:none;stroke:rgb(15,49,87);stroke-width:18.35px;stroke-linejoin:miter;"/></g><g transform="matrix(2.90628,0,0,1.63478,-3353.33,-3708.51)"><path d="M1408,2644.47C1408,2644.47 1413,2658.62 1436,2668.2C1446.7,2672.66 1460.65,2676.96 1474.28,2680.68C1487.26,2684.22 1498.28,2692.83 1504.86,2704.57C1511.43,2716.32 1513.02,2730.21 1509.26,2743.13C1490.36,2808.1 1460,2912.47 1460,2912.47C1460,2912.47 1417.84,2908.12 1388,2892.47C1373.34,2884.78 1369.78,2884.1 1356,2868.47" style="fill:none;stroke:rgb(15,49,87);stroke-width:18.35px;"/></g><g transform="matrix(2.90628,0,0,1.63478,-3353.33,-3708.51)"><path d="M1616.2,2732.51C1616.08,2725.25 1620.42,2718.66 1627.14,2715.91L1688.21,2690.93C1691.75,2689.49 1695.76,2689.89 1698.93,2692.02C1702.1,2694.15 1704,2697.71 1704,2701.53L1704,2920.47L1620,2961.31L1616.2,2732.51ZM1627.21,2732.33L1630.72,2943.86L1692.99,2913.58L1692.99,2701.53C1692.99,2701.38 1692.92,2701.24 1692.79,2701.16C1692.67,2701.08 1692.52,2701.07 1692.38,2701.12L1631.31,2726.1C1628.79,2727.14 1627.16,2729.61 1627.21,2732.33Z" style="fill:rgb(15,49,87);"/></g><g transform="matrix(2.90628,0,0,1.63478,-3353.33,-3708.51)"><path d="M1724,2680.03C1724,2675.35 1726.48,2671.01 1730.51,2668.64L1840.09,2604.18C1844.17,2601.78 1849.23,2601.75 1853.35,2604.1C1857.46,2606.46 1860,2610.83 1860,2615.57L1860,2740.88C1860,2745.58 1857.5,2749.93 1853.44,2752.3L1743.87,2816.18C1739.78,2818.56 1734.73,2818.58 1730.63,2816.22C1726.53,2813.87 1724,2809.5 1724,2804.77L1724,2680.03ZM1735.01,2680.03L1735.01,2804.77C1735.01,2805.55 1735.43,2806.28 1736.12,2806.68C1736.8,2807.07 1737.64,2807.07 1738.32,2806.67L1847.9,2742.78C1848.57,2742.39 1848.99,2741.66 1848.99,2740.88L1848.99,2615.57C1848.99,2614.78 1848.57,2614.05 1847.88,2613.66C1847.19,2613.27 1846.35,2613.28 1845.67,2613.68L1736.1,2678.13C1735.42,2678.53 1735.01,2679.25 1735.01,2680.03Z" style="fill:rgb(15,49,87);"/></g><g transform="matrix(2.90628,0,0,1.63478,-2901.84,-3857.64)"><path d="M1860,2710.83L1860,2740.88C1860,2745.58 1857.5,2749.93 1853.44,2752.3C1833.82,2763.73 1775.02,2798.02 1743.87,2816.18C1739.78,2818.56 1734.73,2818.58 1730.63,2816.22C1726.53,2813.87 1724,2809.5 1724,2804.77L1724,2680.03C1724,2675.35 1726.48,2671.01 1730.51,2668.64C1752.58,2655.66 1823.15,2614.15 1823.15,2614.15" style="fill:none;stroke:rgb(15,49,87);stroke-width:11.01px;"/></g><g transform="matrix(3.24535,0,0,1.74759,-3984.96,-4031.02)"><path d="M1761.14,2909.97L1781.49,2849.15L1960.6,2744.38L1994.63,2768.25L1761.14,2909.97ZM1779.25,2887.07L1976.05,2767.62L1960.13,2756.46L1789.57,2856.23L1779.25,2887.07Z" style="fill:rgb(15,49,87);"/></g><g transform="matrix(2.90628,0,0,1.63478,-3353.33,-3708.51)"><path d="M1959.83,2492.74C1849.4,2552.56 1601.01,2686.93 1588,2692.47C1571.24,2699.62 1557.17,2726.84 1548,2756.47C1525.59,2828.86 1492,2928.47 1492,2928.47L1492,3004.47" style="fill:none;stroke:rgb(15,49,87);stroke-width:11.01px;"/></g></g><g transform="matrix(2.90628,0,0,1.63478,-3353.33,-3708.51)"><path d="M1744,2368.47L1872,2444.47L1872,2500.47L1744,2428.47L1744,2368.47ZM1755.01,2387.82L1755.01,2422.03L1860.99,2481.64L1860.99,2450.74L1755.01,2387.82Z" style="fill:rgb(15,49,87);"/></g><g id="Dachgerät1"><g transform="matrix(2.90628,0,0,1.63478,-3353.33,-3708.51)"><path d="M1764,2484.47L1800,2464.47L1800,2496.47L1764,2516.47L1764,2484.47ZM1775.01,2490.95L1775.01,2497.76L1788.99,2489.99L1788.99,2483.18L1775.01,2490.95Z" style="fill:rgb(15,49,87);"/></g><g transform="matrix(2.90628,0,0,1.63478,-3353.33,-3708.51)"><path d="M1764,2484.47L1708,2452.47L1744,2434.3L1800,2464.47L1764,2484.47ZM1764.08,2471.83L1777.06,2464.62L1743.83,2446.71L1731.24,2453.07L1764.08,2471.83Z" style="fill:rgb(15,49,87);"/></g><g transform="matrix(2.90628,0,0,1.63478,-3353.33,-3708.51)"><path d="M1708,2452.47L1764,2484.47L1764,2516.47L1708,2484.47L1708,2452.47ZM1719.01,2471.45L1719.01,2478.08L1752.99,2497.5L1752.99,2490.86L1719.01,2471.45Z" style="fill:rgb(15,49,87);"/></g></g><g transform="matrix(2.90628,0,0,1.63478,-3353.33,-3708.51)"><path d="M1650.62,2575.25L1703.47,2547.06L1735.18,2564.68L1682.33,2592.86L1650.62,2575.25ZM1673.65,2575.44L1682.44,2580.33L1712.15,2564.48L1703.37,2559.6L1673.65,2575.44Z" style="fill:rgb(15,49,87);"/></g><g transform="matrix(2.90628,0,0,1.63478,-3353.33,-3708.51)"><path d="M1650.62,2575.25L1682.33,2592.86L1682.33,2610.48L1650.62,2592.86L1650.62,2575.25Z" style="fill:rgb(15,49,87);"/></g><g transform="matrix(2.90628,0,0,1.63478,-3353.33,-3708.51)"><path d="M1672.84,2391.86L1693.77,2382.38L1806.23,2444.47L1825.26,2477.23" style="fill:none;stroke:rgb(238,121,0);stroke-width:25.69px;"/></g><g transform="matrix(2.90628,0,0,1.63478,-3353.33,-3708.51)"><path d="M1797,2440.47L1610,2518.65C1610,2518.65 1591.83,2521.15 1580,2514.22C1568.17,2507.29 1580,2496.47 1580,2496.47L1712,2396.12" style="fill:none;stroke:rgb(238,121,0);stroke-width:25.69px;"/></g><g transform="matrix(2.90628,0,0,1.63478,-3348.86,-3718.56)"><path d="M1515.19,2503.88L1631.47,2567.3L1575.09,2599.01L1460,2536.47L1515.19,2503.88Z" style="fill:white;"/><path d="M1515.19,2503.88L1631.47,2567.3L1575.09,2599.01L1460,2536.47L1515.19,2503.88ZM1515.41,2516.54L1482.33,2536.07L1575,2586.43L1608.75,2567.45L1515.41,2516.54Z" style="fill:rgb(15,49,87);"/></g><g transform="matrix(2.90628,0,0,1.63478,-3348.86,-3718.56)"><path d="M1575.09,2599.01L1631.47,2567.3L1631.47,2627.2L1575.09,2658.91L1575.09,2599.01ZM1586.1,2605.45L1586.1,2640.08L1620.46,2620.76L1620.46,2586.13L1586.1,2605.45Z" style="fill:rgb(15,49,87);"/></g><g transform="matrix(2.90628,0,0,1.63478,-3348.86,-3718.56)"><path d="M1460,2536.47L1444,2551.69L1444,2604.47L1539.86,2655.38L1576,2652.78L1575.09,2599.01L1460,2536.47Z" style="fill:white;"/><path d="M1460,2536.47L1575.09,2599.01L1576,2652.78L1539.86,2655.38L1444,2604.47L1444,2551.69L1460,2536.47ZM1461.78,2549.97L1455.01,2556.41L1455.01,2597.85L1542.23,2644.18L1564.82,2642.55L1564.19,2605.62L1461.78,2549.97Z" style="fill:rgb(15,49,87);"/></g><g transform="matrix(2.90628,0,0,1.63478,-3353.33,-3708.51)"><path d="M1937.68,2461.06L1872,2500.47L1872,2444.47L1910.54,2421.35" style="fill:none;stroke:rgb(15,49,87);stroke-width:11.01px;"/></g><g transform="matrix(2.90628,0,0,1.63478,-3353.33,-3708.51)"><path d="M1801.52,2335.61L1744,2368.47L1872,2444.47L1906.56,2423.74" style="fill:white;stroke:rgb(15,49,87);stroke-width:11.01px;"/></g><g transform="matrix(2.90628,0,0,1.63478,-3353.33,-3708.51)"><path d="M1732,2712.47L1852,2644.47" style="fill:none;stroke:rgb(15,49,87);stroke-width:11.01px;"/></g><g transform="matrix(2.90628,0,0,1.63478,-3353.33,-3708.51)"><path d="M1888,2648.47L2008,2580.47" style="fill:none;stroke:rgb(15,49,87);stroke-width:11.01px;"/></g><g transform="matrix(2.90628,0,0,1.63478,-3353.33,-3708.51)"><path d="M1939.54,2547.06L1940,2616.47" style="fill:none;stroke:rgb(15,49,87);stroke-width:11.01px;"/></g><g transform="matrix(2.90628,0,0,1.63478,-3353.33,-3708.51)"><path d="M1352,2988.47L1299.55,3014.7" style="fill:none;stroke:rgb(15,49,87);stroke-width:33.03px;"/></g><g transform="matrix(3.77816,-0.245217,-0.435942,1.75739,-2915.44,-3700.88)"><path d="M1352,2988.47L1281.72,3023.61" style="fill:none;stroke:rgb(15,49,87);stroke-width:31.65px;"/></g><g transform="matrix(2.90628,0,0,1.63478,-3353.33,-3708.51)"><path d="M1668,2476.47L1648,2468.47L1720,2428.47" style="fill:none;stroke:rgb(238,121,0);stroke-width:11.01px;"/></g><g transform="matrix(2.90628,0,0,1.63478,-3353.33,-3708.51)"><path d="M1628,2472.47L1628,2488.47L1668,2472.47" style="fill:none;stroke:rgb(238,121,0);stroke-width:11.01px;"/></g><g id="LOGO--Grenze" transform="matrix(2.56,0,0,1.44,3.18323e-12,-2102.4)"><path d="M500,1460C775.958,1460 1000,1684.04 1000,1960C1000,2235.96 775.958,2460 500,2460C224.042,2460 0,2235.96 0,1960C0,1684.04 224.042,1460 500,1460ZM500,1500C246.119,1500 40,1706.12 40,1960C40,2213.88 246.119,2420 500,2420C753.881,2420 960,2213.88 960,1960C960,1706.12 753.881,1500 500,1500Z" style="fill:rgb(15,49,87);"/></g></g></g></g></g><g id="_1--Anforderungsmanagement" serif:id="1--Anforderungsmanagement"></g></g></svg>