<?xml version="1.0" encoding="UTF-8" standalone="no"?><!DOCTYPE svg PUBLIC "-//W3C//DTD SVG 1.1//EN" "http://www.w3.org/Graphics/SVG/1.1/DTD/svg11.dtd"><svg width="100%" height="100%" viewBox="0 0 1000 1000" version="1.1" xmlns="http://www.w3.org/2000/svg" xmlns:xlink="http://www.w3.org/1999/xlink" xml:space="preserve" xmlns:serif="http://www.serif.com/" style="fill-rule:evenodd;clip-rule:evenodd;stroke-linecap:square;stroke-linejoin:round;stroke-miterlimit:1;"><g id="_9--Aenderungsmanagement-Baubetreuung" serif:id="9--Aenderungsmanagement&amp;Baubetreuung"></g><g id="_8--Sicherheitsnachweis" serif:id="8--Sicherheitsnachweis"></g><g id="_7--Schaltplanerstellung-Kabeldesign" serif:id="7--Schaltplanerstellung&amp;Kabeldesign"></g><g id="_6--SpezifikatioFuerKomponenten-Software" serif:id="6--SpezifikatioFuerKomponenten&amp;Software"></g><g id="_5--Systemkonzepte-Integration" serif:id="5--Systemkonzepte&amp;Integration"></g><g id="_5--Systemkonzepte-Integration1" serif:id="5--Systemkonzepte&amp;Integration"></g><g id="_4--Schnittstellenanalyse" serif:id="4--Schnittstellenanalyse"></g><g id="_3--Risikoanalyse" serif:id="3--Risikoanalyse"></g><g id="_3--Risikoanalyse1" serif:id="3--Risikoanalyse"></g><g id="_2--EntwicklungVonFahrzeugkonzepten" serif:id="2--EntwicklungVonFahrzeugkonzepten"></g><g id="_2--EntwicklungVonFahrzeugkonzepten1" serif:id="2--EntwicklungVonFahrzeugkonzepten"><rect id="_2-4---EntwicklungVonFahrzeugkonzepten" serif:id="2-4---EntwicklungVonFahrzeugkonzepten" x="0" y="0" width="1000" height="1000" style="fill:none;"/><g id="_2-4---EntwicklungVonFahrzeugkonzepten1" serif:id="2-4---EntwicklungVonFahrzeugkonzepten"><path d="M304.399,63.777l658.147,328.593" style="fill:none;stroke:#0f3157;stroke-width:12.5px;"/><path d="M111.498,768.999l120.275,-32.763" style="fill:none;stroke:#0f3157;stroke-width:29.17px;"/><path d="M162.254,838.759c0,-0 556.046,-191.693 800.292,-280.925" style="fill:none;stroke:#0f3157;stroke-width:29.17px;"/><path d="M168,376.236l-12,224l0,40l-10.05,12l-1.95,24l10.274,44l129.726,16l68,-4l24,-4l124,-28l420,-144l-4,-88l-8,-28l-432,-104l-140,-2.443l-152,6.443l-12,20l-4,16Z" style="fill:none;stroke:#ee7900;stroke-width:29.17px;"/><path d="M690.829,386.027l20.585,-38.329l-10.292,0l-61.757,-87.489l-20.586,-10.292l102.928,-10.293l-7.868,10.293l18.161,92.635l-20.586,5.146" style="fill:none;stroke:#ee7900;stroke-width:29.17px;"/><path d="M710.28,392.37l8.334,22.084l10.744,181.651l-3.638,24.058" style="fill:none;stroke:#ee7900;stroke-width:12.5px;"/><path d="M476,338.236l12,35.648l12,291.826l-6,38.526" style="fill:none;stroke:#ee7900;stroke-width:12.5px;"/><path d="M152,644.236l32,4l88,4l72.597,-3.631" style="fill:none;stroke:#ee7900;stroke-width:12.5px;"/><path d="M173.838,369.466c0,-0 14.944,-3.441 22.662,-3.941c21.034,-1.363 103.541,-4.234 103.541,-4.234c-0,-0 3.865,0.22 8.728,0.498c10.841,0.618 19.292,9.629 19.214,20.487c-0.323,44.87 -1.117,155.506 -1.443,200.879c-0.08,11.169 -8.866,20.331 -20.022,20.88c-13.996,0.687 -30.247,1.486 -30.247,1.486l-86.83,-2.463c0,-0 -24.409,-1.385 -33.441,-2.822" style="fill:none;stroke:#ee7900;stroke-width:12.5px;"/><path d="M160.372,379.135c-5.476,2.603 -44.721,22.557 -44.721,22.557l-14.603,84.591l17.341,3.036l13.233,-63.334l-6.845,-14.749l32.857,-17.786c-0,0 8.214,-16.918 2.738,-14.315Z" style="fill:none;stroke:#ee7900;stroke-width:29.17px;"/><path d="M362.779,429.377l107.299,4.714l5.922,152.243l-112.728,11.528l-0.493,-168.485Z" style="fill:none;stroke:#ee7900;stroke-width:12.5px;"/><path d="M677.625,555.32l3.296,54.133l-4.729,23.332l-40.988,13.873l4.729,-25.854l-3.326,-59.189l-119.566,18.348l-6.864,-146.999l119.772,10.176l-0.77,-14.588l41.142,4.477l0.687,13.6c-0,-0 32.746,2.782 32.746,2.782l6.526,100.898l-32.655,5.011Z" style="fill:none;stroke:#ee7900;stroke-width:12.5px;"/><path d="M823.489,532.935l2.134,34.243l-2.381,16.022l-29.219,10.815l3.834,-23.205l-2.295,-33.589l-54.347,8.34l-5.368,-93.423l54.408,4.623l-0.873,-12.674l28.508,3.544l0.793,11.545l33.023,2.806l5.096,65.841l-33.313,5.112Z" style="fill:none;stroke:#ee7900;stroke-width:12.5px;"/><path d="M870.456,525.728l-4.998,-62.578l31.841,2.706l5.562,54.636l-32.405,5.236Z" style="fill:none;stroke:#ee7900;stroke-width:12.5px;"/><path d="M330.434,333.311c-0,0 8.907,15.588 12.892,22.561c1.236,2.164 1.884,4.615 1.879,7.108c-0.072,34.08 -0.608,285.625 -0.608,285.625l8.006,81.903" style="fill:none;stroke:#ee7900;stroke-width:12.5px;"/><path id="LOGO--Grenze" d="M500,0c275.958,0 500,224.042 500,500c-0,275.958 -224.042,500 -500,500c-275.958,-0 -500,-224.042 -500,-500c0,-275.958 224.042,-500 500,-500Zm0,40c-253.881,0 -460,206.119 -460,460c0,253.881 206.119,460 460,460c253.881,-0 460,-206.119 460,-460c-0,-253.881 -206.119,-460 -460,-460Z" style="fill:#0f3157;"/></g></g><g id="_1--Anforderungsmanagement" serif:id="1--Anforderungsmanagement"></g></svg>