<?xml version="1.0" encoding="UTF-8" standalone="no"?><!DOCTYPE svg PUBLIC "-//W3C//DTD SVG 1.1//EN" "http://www.w3.org/Graphics/SVG/1.1/DTD/svg11.dtd"><svg width="100%" height="100%" viewBox="0 0 1000 1000" version="1.1" xmlns="http://www.w3.org/2000/svg" xmlns:xlink="http://www.w3.org/1999/xlink" xml:space="preserve" xmlns:serif="http://www.serif.com/" style="fill-rule:evenodd;clip-rule:evenodd;stroke-linecap:round;stroke-linejoin:round;stroke-miterlimit:1.5;"><g id="_9--Aenderungsmanagement-Baubetreuung" serif:id="9--Aenderungsmanagement&amp;Baubetreuung"></g><g id="_8--Sicherheitsnachweis" serif:id="8--Sicherheitsnachweis"></g><g id="_7--Schaltplanerstellung-Kabeldesign" serif:id="7--Schaltplanerstellung&amp;Kabeldesign"></g><g id="_6--SpezifikatioFuerKomponenten-Software" serif:id="6--SpezifikatioFuerKomponenten&amp;Software"></g><g id="_5--Systemkonzepte-Integration" serif:id="5--Systemkonzepte&amp;Integration"></g><g id="_5--Systemkonzepte-Integration1" serif:id="5--Systemkonzepte&amp;Integration"></g><g id="_4--Schnittstellenanalyse" serif:id="4--Schnittstellenanalyse"></g><g id="_3--Risikoanalyse" serif:id="3--Risikoanalyse"></g><g id="_3--Risikoanalyse1" serif:id="3--Risikoanalyse"><rect id="_3-7--Risikoanalyse" serif:id="3-7--Risikoanalyse" x="0" y="0" width="1000" height="1000" style="fill:none;"/><clipPath id="_clip1"><rect id="_3-7--Risikoanalyse1" serif:id="3-7--Risikoanalyse" x="0" y="0" width="1000" height="1000"/></clipPath><g clip-path="url(#_clip1)"><g id="ICE"><path d="M913.052,760l-321.539,-0l-21.104,-8.891c-16.873,-2.812 -31.734,1.726 -43.713,-3.721c-19.057,-8.665 -32.867,-20.098 -44.437,-32.498c-24.503,-26.261 7.316,-47.429 -42.187,-87.97c-28.616,-23.435 9.528,-66.92 9.528,-66.92c2.643,-11.567 5.564,-22.742 8.738,-33.541c62.678,-213.271 223.959,-279.538 291.262,-306.459c34.589,-13.835 96.157,-22.885 130.825,-27.15c66.134,84.781 105.553,191.398 105.553,307.15c-0,95.201 -26.665,184.223 -72.926,260Zm-444.585,-158.18c25.734,22.41 33.746,41.565 37.382,57.841c1.642,7.351 2.212,14.249 2.585,20.926c0.16,2.852 -1.414,5.873 1.243,8.72c8.205,8.794 17.88,17.013 31.141,23.295c1.623,0.031 6.622,0.117 9.635,0.058c8.222,-0.16 16.948,-0.07 26.121,1.459c2.883,0.481 5.701,1.297 8.395,2.432l14.121,5.949l292.373,0c36.342,-66.027 57.015,-141.869 57.015,-222.5c-0,-99.476 -31.472,-191.659 -84.999,-267.122c-32.194,4.469 -74.176,11.63 -99.952,21.94c-62.087,24.835 -211.39,85.471 -269.211,282.215c-2.964,10.084 -5.69,20.52 -8.158,31.321c-1.387,6.068 -4.262,11.695 -8.367,16.375l-9.324,17.091Z" style="fill:#0f3157;"/><path d="M459.784,521.619c47.764,-157.092 149.351,-233.186 225.332,-272.684c27.48,0.532 64.484,5.918 64.484,31.065c0,40 -59.505,109.588 -120,160c-8.874,7.395 -35.611,15.143 -43.865,21.282c-73.191,54.435 -103.741,60.718 -125.951,60.337Zm31.183,-26.805c18.321,-6.969 43.587,-21.43 82.335,-50.248c5.017,-3.732 15.481,-8.31 26.21,-12.722c6.584,-2.707 13.441,-5.09 16.751,-7.849c34.798,-28.998 69.33,-64.544 91.328,-96.681c12.373,-18.077 21.176,-34.372 21.176,-47.314c-0,-1.208 -1.16,-1.686 -2.13,-2.317c-1.757,-1.143 -3.809,-2.046 -6.016,-2.839c-9.114,-3.273 -20.354,-4.493 -30.648,-4.921c-66.35,35.397 -151.23,99.998 -199.006,224.891Z" style="fill:#0f3157;"/></g><g id="Ebene1"></g><path d="M383,660l33,-0c1.061,0 2.078,-0.421 2.828,-1.172c0.751,-0.75 1.172,-1.767 1.172,-2.828c0,-3.486 0,-8.514 0,-12c-0,-1.061 0.421,-2.078 1.172,-2.828c0.75,-0.751 1.767,-1.172 2.828,-1.172c2.713,-0 6.287,-0 9,-0c2.209,-0 4,1.791 4,4c0,14.902 0,67.098 0,82c-0,2.209 -1.791,4 -4,4c-2.713,-0 -6.287,-0 -9,-0c-1.061,0 -2.078,-0.421 -2.828,-1.172c-0.751,-0.75 -1.172,-1.767 -1.172,-2.828c0,-3.486 0,-8.514 0,-12c0,-1.061 -0.421,-2.078 -1.172,-2.828c-0.75,-0.751 -1.767,-1.172 -2.828,-1.172c-9.571,-0 -33,-0 -33,-0l0,-50Z" style="fill:#ee7900;"/><path d="M383,660l33,-0c1.061,0 2.078,-0.421 2.828,-1.172c0.751,-0.75 1.172,-1.767 1.172,-2.828l0,-12c-0,-1.061 0.421,-2.078 1.172,-2.828c0.75,-0.751 1.767,-1.172 2.828,-1.172l9,-0c2.209,-0 4,1.791 4,4l0,82c-0,2.209 -1.791,4 -4,4l-9,-0c-1.061,0 -2.078,-0.421 -2.828,-1.172c-0.751,-0.75 -1.172,-1.767 -1.172,-2.828l0,-12c0,-1.061 -0.421,-2.078 -1.172,-2.828c-0.75,-0.751 -1.767,-1.172 -2.828,-1.172l-33,-0l0,-50Zm37.333,34.195l0,-18.39l-4.333,0.862l-16.333,-0l-0,16.666l16.333,0l4.333,0.862Z" style="fill:#ee7900;"/><path d="M390,666.863l0,42.939c0,14.384 -13.702,23.095 -26,30.198c-6.683,3.86 -9.061,10 -17.524,10l-106.476,0.778l-75,-37.507l-92.479,36.729c-46.116,-73.561 -72.521,-158.955 -72.521,-250c0,-103.712 34.263,-200.091 92.896,-280l117.104,50c0,-0 7.788,-38.158 30,-50c29.086,-15.507 75.757,-3.57 90,20c6.442,10.66 23.721,61.537 20,120c-3.023,47.492 -26.153,99.989 -30,140c-2.759,28.69 40.384,58.784 46.554,86c14.682,64.762 23.446,80.863 23.446,80.863Zm-51.939,45.697c2.325,-1.817 4.973,-3.756 7.183,-5.032c1.988,-1.149 5.027,-3.179 7.256,-4.7l0,-28.38c-4.607,-11.922 -12.472,-35.845 -22.518,-80.157c-0.865,-3.813 -4.062,-7.302 -6.99,-11.303c-6.368,-8.703 -13.831,-17.559 -20.14,-26.435c-14.075,-19.804 -22.055,-40.637 -20.18,-60.142c3.815,-39.676 26.906,-91.7 29.904,-138.793c3.037,-47.726 -9.412,-89.521 -14.671,-98.223c-2.69,-4.452 -9.418,-6.024 -15.872,-7.532c-8.216,-1.92 -17.397,-2.501 -24.391,1.228c-3.81,2.031 -4.884,7.343 -6.504,11.124c-3.058,7.134 -4.396,13.284 -4.396,13.284c-2.253,11.039 -9.349,20.48 -19.327,25.712c-9.978,5.232 -21.779,5.701 -32.14,1.277l-88.849,-37.936c-43.755,68.467 -68.926,148.26 -68.926,233.448c0,72.935 18.446,141.919 51.215,203.219l62.443,-24.8c9.926,-3.942 21.063,-3.465 30.615,1.312l66.952,33.482l89.336,-0.653Z" style="fill:#ee7900;"/><path d="M259.145,557.297c0.154,0.491 0.289,0.921 0.404,1.284c0.036,0.143 -0.044,0.29 -0.184,0.337c-0.14,0.047 -0.293,-0.021 -0.351,-0.156c-0.141,-0.419 -0.158,-0.919 0.131,-1.465Zm0,-0c-3.912,-12.509 -19.894,-65.107 -19.145,-87.297c1,-29.619 26,-87.715 26,-87.715l-4.37,-45.362c-0.393,-4.082 1.109,-8.118 4.074,-10.951c2.966,-2.832 7.067,-4.148 11.127,-3.568l53.169,7.596c-0,-0 2.721,43.844 -10,100c-9.008,39.766 -22.3,84.053 -0,120c-48.694,-0 -59.284,4.33 -60.855,7.297Zm13.876,-25.943c4.498,-0.567 9.999,-1.068 16.714,-1.447c-2.878,-12.989 -3.348,-26.47 -2.241,-40.155c1.74,-21.506 7.471,-43.533 12.187,-64.355c7.342,-32.408 9.261,-60.456 9.648,-77.305l-26.052,-3.722l3.46,35.918c0.337,3.491 -0.214,7.011 -1.6,10.232c-0,0 -23.4,53.056 -24.316,80.183c-0.474,14.044 6.558,41.235 12.2,60.651Z" style="fill:#ee7900;"/><path d="M600,600l22.944,-6.471l29.933,6.471l297.123,-0" style="fill:none;stroke:#0f3157;stroke-width:12.5px;"/><path d="M300,600l-40.379,6.542l-73.697,-6.542l-155.924,-0" style="fill:none;stroke:#ee7900;stroke-width:12.5px;"/><path d="M160,320c5.304,-0 10.391,2.107 14.142,5.858c3.751,3.751 5.858,8.838 5.858,14.142l0,200c0,5.304 -2.107,10.391 -5.858,14.142c-3.751,3.751 -8.838,5.858 -14.142,5.858l-40,-0c-5.304,0 -10.391,-2.107 -14.142,-5.858c-3.751,-3.751 -5.858,-8.838 -5.858,-14.142l0,-200c-0,-5.304 2.107,-10.391 5.858,-14.142c3.751,-3.751 8.838,-5.858 14.142,-5.858l40,0Zm-0,12.5l-40,0c-1.989,-0 -3.897,0.79 -5.303,2.197c-1.407,1.406 -2.197,3.314 -2.197,5.303l-0,200c-0,1.989 0.79,3.897 2.197,5.303c1.406,1.407 3.314,2.197 5.303,2.197l40,-0c1.989,0 3.897,-0.79 5.303,-2.197c1.407,-1.406 2.197,-3.314 2.197,-5.303l0,-200c0,-1.989 -0.79,-3.897 -2.197,-5.303c-1.406,-1.407 -3.314,-2.197 -5.303,-2.197Z" style="fill:#ee7900;"/><path d="M880,320c5.304,-0 10.391,2.107 14.142,5.858c3.751,3.751 5.858,8.838 5.858,14.142l-0,200c0,5.304 -2.107,10.391 -5.858,14.142c-3.751,3.751 -8.838,5.858 -14.142,5.858l-40,-0c-5.304,0 -10.391,-2.107 -14.142,-5.858c-3.751,-3.751 -5.858,-8.838 -5.858,-14.142l0,-200c-0,-5.304 2.107,-10.391 5.858,-14.142c3.751,-3.751 8.838,-5.858 14.142,-5.858l40,-0Zm-0,12.5l-40,0c-1.989,-0 -3.897,0.79 -5.303,2.197c-1.407,1.406 -2.197,3.314 -2.197,5.303l-0,200c-0,1.989 0.79,3.897 2.197,5.303c1.406,1.407 3.314,2.197 5.303,2.197l40,-0c1.989,0 3.897,-0.79 5.303,-2.197c1.407,-1.406 2.197,-3.314 2.197,-5.303l-0,-200c0,-1.989 -0.79,-3.897 -2.197,-5.303c-1.406,-1.407 -3.314,-2.197 -5.303,-2.197Z" style="fill:#0f3157;"/><path d="M150,820l710,-0" style="fill:none;stroke:#0f3157;stroke-width:29.17px;"/><path id="LOGO--Grenze" d="M500,0c275.958,0 500,224.042 500,500c0,275.958 -224.042,500 -500,500c-275.958,0 -500,-224.042 -500,-500c0,-275.958 224.042,-500 500,-500Zm0,40c-253.881,0 -460,206.119 -460,460c0,253.881 206.119,460 460,460c253.881,0 460,-206.119 460,-460c0,-253.881 -206.119,-460 -460,-460Z" style="fill:#0f3157;"/><path d="M380,515.493l8.833,24.507" style="fill:none;stroke:#ee7900;stroke-width:37.5px;stroke-linecap:square;stroke-miterlimit:1;"/><path d="M366.955,780l-1.386,5" style="fill:none;stroke:#ee7900;stroke-width:37.5px;stroke-linecap:square;stroke-miterlimit:1;"/><path d="M457.908,750.778l4.362,9.222" style="fill:none;stroke:#ee7900;stroke-width:37.5px;stroke-linecap:square;stroke-miterlimit:1;"/></g></g><g id="_2--EntwicklungVonFahrzeugkonzepten" serif:id="2--EntwicklungVonFahrzeugkonzepten"></g><g id="_2--EntwicklungVonFahrzeugkonzepten1" serif:id="2--EntwicklungVonFahrzeugkonzepten"></g><g id="_1--Anforderungsmanagement" serif:id="1--Anforderungsmanagement"></g></svg>