<?xml version="1.0" encoding="UTF-8" standalone="no"?><!DOCTYPE svg PUBLIC "-//W3C//DTD SVG 1.1//EN" "http://www.w3.org/Graphics/SVG/1.1/DTD/svg11.dtd"><svg width="100%" height="100%" viewBox="0 0 1000 1000" version="1.1" xmlns="http://www.w3.org/2000/svg" xmlns:xlink="http://www.w3.org/1999/xlink" xml:space="preserve" xmlns:serif="http://www.serif.com/" style="fill-rule:evenodd;clip-rule:evenodd;stroke-linecap:round;stroke-linejoin:round;stroke-miterlimit:1.5;"><g id="_9--Aenderungsmanagement-Baubetreuung" serif:id="9--Aenderungsmanagement&amp;Baubetreuung"></g><g id="_8--Sicherheitsnachweis" serif:id="8--Sicherheitsnachweis"></g><g id="_7--Schaltplanerstellung-Kabeldesign" serif:id="7--Schaltplanerstellung&amp;Kabeldesign"></g><g id="_6--SpezifikatioFuerKomponenten-Software" serif:id="6--SpezifikatioFuerKomponenten&amp;Software"></g><g id="_5--Systemkonzepte-Integration" serif:id="5--Systemkonzepte&amp;Integration"></g><g id="_5--Systemkonzepte-Integration1" serif:id="5--Systemkonzepte&amp;Integration"></g><g id="_4--Schnittstellenanalyse" serif:id="4--Schnittstellenanalyse"><rect id="_4-2--Schnittstellenanalyse" serif:id="4-2--Schnittstellenanalyse" x="0" y="0" width="1000" height="1000" style="fill:none;"/><clipPath id="_clip1"><rect id="_4-2--Schnittstellenanalyse1" serif:id="4-2--Schnittstellenanalyse" x="0" y="0" width="1000" height="1000"/></clipPath><g clip-path="url(#_clip1)"><path d="M360.844,852.446c-0,0 -6.344,-79.694 64.347,-193.38l390.613,-0c35.905,57.743 51.937,106.718 59.02,140.934" style="fill:none;stroke:#0f3157;stroke-width:20.83px;"/><path d="M940.772,300l7.399,201.151l-108.755,12.689l-2.415,-353.84" style="fill:none;stroke:#0f3157;stroke-width:20.83px;"/><path d="M404.058,150.439l-2.365,346.665c-0.029,4.263 -1.871,8.312 -5.065,11.135c-3.194,2.824 -7.438,4.155 -11.673,3.661l-78.371,-9.143c-7.77,-0.907 -13.539,-7.633 -13.251,-15.45l12.414,-337.522c0.297,-8.064 6.92,-14.449 14.99,-14.448l68.322,-0c3.996,-0 7.827,1.594 10.643,4.429c2.815,2.835 4.384,6.677 4.356,10.673Zm-89.708,332.249l66.555,7.765l2.281,-334.283l-56.826,-0l-12.01,326.518Z" style="fill:#0f3157;"/><g id="Wischer"><path d="M273.272,80l-19.677,496.455l-0.028,234.835c-0,-0 4.631,16.594 8.207,29.408c2.413,8.645 10.289,14.624 19.264,14.624l538.962,-0" style="fill:none;stroke:#0f3157;stroke-width:37.5px;"/><path d="M371.452,852.446c-0,0 -0.366,24.57 -0.476,31.926c-0.02,1.318 0.482,2.59 1.395,3.54c2.656,2.763 8.29,8.623 10.478,10.898c0.587,0.611 1.32,1.062 2.129,1.312c4.096,1.265 17.403,5.375 24.858,7.677c1.214,0.375 2.533,0.151 3.555,-0.603c1.022,-0.754 1.625,-1.949 1.625,-3.219c0,-14.225 0,-51.531 0,-51.531l-43.564,0Z" style="fill:#0f3157;"/><circle cx="605.82" cy="583.793" r="5.915" style="fill:none;stroke:#0f3157;stroke-width:12.5px;"/><circle cx="642.513" cy="583.793" r="5.915" style="fill:none;stroke:#0f3157;stroke-width:12.5px;"/><path d="M620.497,528.001c-114.005,-0 -167.215,-3.355 -188.785,-5.338c-7.255,-1.108 -12.643,-7.304 -12.734,-14.643c-0.766,-85.695 -0.097,-308.61 0.097,-366.926c0.026,-7.927 6.216,-14.466 14.13,-14.925c29.683,-1.574 102.93,-4.934 187.292,-4.934c89.245,-0 166.051,3.76 192.003,5.188c5.269,0.314 9.387,4.67 9.405,9.948c0.168,49.77 0.9,283.426 0.098,371.648c-0.09,7.333 -5.473,13.524 -12.723,14.631c-21.568,1.996 -74.777,5.351 -188.783,5.351Zm-180.731,-25.557c24.601,1.971 77.477,4.723 180.731,4.723c103.249,0 156.121,-2.751 180.72,-4.732c0.684,-86.575 0.097,-291.475 -0.112,-355.752c-32.426,-1.652 -101.615,-4.615 -180.608,-4.615c-79.058,0 -148.297,2.968 -180.607,4.615c-0.209,64.292 -0.798,269.29 -0.124,355.761Z" style="fill:#0f3157;"/><path d="M418.825,20.476c-0.161,19.165 -0.296,44.225 -0.13,63.221c0.119,5.519 2.515,10.743 6.619,14.435c4.104,3.692 9.552,5.522 15.052,5.059c25.836,-1.193 79.121,-2.766 180.131,-2.766c79.332,0 129.225,0.97 159.503,1.962" style="fill:none;stroke:#0f3157;stroke-width:20.83px;"/><path d="M661.867,561.777c5.523,0 10,4.477 10,10c0,12.452 0,33.596 0,46.048c0,5.523 -4.477,10 -10,10c-28.934,-0 -112.514,-0 -141.449,-0c-5.523,-0 -10,-4.477 -10,-10c0,-12.452 0,-33.596 0,-46.048c0,-5.523 4.477,-10 10,-10c28.935,0 112.515,0 141.449,0Z" style="fill:#ee7900;"/><path d="M774.608,160l-0,330" style="fill:none;stroke:#ee7900;stroke-width:20.83px;"/><path d="M752.592,323.669l36.693,-0" style="fill:none;stroke:#ee7900;stroke-width:20.83px;"/><path d="M605.82,583.793l146.772,-260.124" style="fill:none;stroke:#ee7900;stroke-width:20.83px;"/><path d="M642.513,583.793l147.487,-260.124" style="fill:none;stroke:#ee7900;stroke-width:20.83px;"/><path d="M657.19,598.47l73.386,0l-0.576,-58.47l110,-0" style="fill:none;stroke:#ee7900;stroke-width:12.5px;"/></g><path d="M354.168,565.832c13.339,-0 24.168,10.829 24.168,24.168c0,13.339 -10.829,24.168 -24.168,24.168c-13.339,0 -24.168,-10.829 -24.168,-24.168c-0,-13.339 10.829,-24.168 24.168,-24.168Zm0,12.5c-6.44,-0 -11.668,5.228 -11.668,11.668c-0,6.44 5.228,11.668 11.668,11.668c6.44,0 11.668,-5.228 11.668,-11.668c0,-6.44 -5.228,-11.668 -11.668,-11.668Z" style="fill:#0f3157;"/><path d="M886.021,613.979c-13.234,-0 -23.979,-10.745 -23.979,-23.979c0,-13.234 10.745,-23.979 23.979,-23.979c13.234,0 23.979,10.745 23.979,23.979c-0,13.234 -10.745,23.979 -23.979,23.979Zm0,-12.5c6.336,-0 11.479,-5.144 11.479,-11.479c0,-6.335 -5.143,-11.479 -11.479,-11.479c-6.335,0 -11.479,5.144 -11.479,11.479c0,6.335 5.144,11.479 11.479,11.479Z" style="fill:#0f3157;"/><path d="M426.08,559.076c17.068,-0 30.925,13.856 30.925,30.924c-0,17.068 -13.857,30.924 -30.925,30.924c-17.067,0 -30.924,-13.856 -30.924,-30.924c0,-17.068 13.857,-30.924 30.924,-30.924Zm0,12.5c-10.168,-0 -18.424,8.255 -18.424,18.424c0,10.169 8.256,18.424 18.424,18.424c10.169,0 18.425,-8.255 18.425,-18.424c-0,-10.169 -8.256,-18.424 -18.425,-18.424Z" style="fill:#0f3157;"/><path d="M814.672,620.682c-16.934,0 -30.682,-13.748 -30.682,-30.682c-0,-16.934 13.748,-30.682 30.682,-30.682c16.934,-0 30.682,13.748 30.682,30.682c0,16.934 -13.748,30.682 -30.682,30.682Zm-0,-12.5c10.035,0 18.182,-8.147 18.182,-18.182c0,-10.035 -8.147,-18.182 -18.182,-18.182c-10.035,-0 -18.182,8.147 -18.182,18.182c-0,10.035 8.147,18.182 18.182,18.182Z" style="fill:#0f3157;"/><path d="M554.45,597.815l-0,114.139c-0,10.279 -8.333,18.611 -18.612,18.611c-54.328,0 -208.885,0 -208.885,0" style="fill:none;stroke:#ee7900;stroke-width:12.5px;stroke-linejoin:miter;stroke-miterlimit:1;"/><rect x="275.583" y="715.888" width="73.386" height="66.047" style="fill:#ee7900;"/><rect x="840" y="529.721" width="36.693" height="29.354" style="fill:#ee7900;"/><path d="M260,910l480,0" style="fill:none;stroke:#0f3157;stroke-width:37.5px;stroke-linejoin:bevel;"/><path d="M312.038,730.565l-0,-122.055c-0,-5.545 -4.495,-10.04 -10.04,-10.04c-12.929,0 -33.754,0 -33.754,0" style="fill:none;stroke:#ee7900;stroke-width:12.5px;"/><path d="M268.244,569.116l0,55.12" style="fill:none;stroke:#ee7900;stroke-width:20.83px;"/><path id="LOGO--Grenze" d="M500,-0.491c275.958,-0 500,224.042 500,500c0,275.957 -224.042,500 -500,500c-275.958,-0 -500,-224.043 -500,-500c0,-275.958 224.042,-500 500,-500Zm0,41.666c-252.961,0 -458.333,205.372 -458.333,458.334c-0,252.961 205.372,458.333 458.333,458.333c252.961,-0 458.333,-205.372 458.333,-458.333c0,-252.962 -205.372,-458.334 -458.333,-458.334Z" style="fill:#0f3157;"/></g></g><g id="_3--Risikoanalyse" serif:id="3--Risikoanalyse"></g><g id="_3--Risikoanalyse1" serif:id="3--Risikoanalyse"></g><g id="_2--EntwicklungVonFahrzeugkonzepten" serif:id="2--EntwicklungVonFahrzeugkonzepten"></g><g id="_2--EntwicklungVonFahrzeugkonzepten1" serif:id="2--EntwicklungVonFahrzeugkonzepten"></g><g id="_1--Anforderungsmanagement" serif:id="1--Anforderungsmanagement"></g></svg>