<?xml version="1.0" encoding="UTF-8" standalone="no"?><!DOCTYPE svg PUBLIC "-//W3C//DTD SVG 1.1//EN" "http://www.w3.org/Graphics/SVG/1.1/DTD/svg11.dtd"><svg width="100%" height="100%" viewBox="0 0 1000 1000" version="1.1" xmlns="http://www.w3.org/2000/svg" xmlns:xlink="http://www.w3.org/1999/xlink" xml:space="preserve" xmlns:serif="http://www.serif.com/" style="fill-rule:evenodd;clip-rule:evenodd;stroke-linecap:round;stroke-linejoin:round;stroke-miterlimit:1;"><g id="_9--Aenderungsmanagement-Baubetreuung" serif:id="9--Aenderungsmanagement&amp;Baubetreuung"></g><g id="_8--Sicherheitsnachweis" serif:id="8--Sicherheitsnachweis"></g><g id="_7--Schaltplanerstellung-Kabeldesign" serif:id="7--Schaltplanerstellung&amp;Kabeldesign"></g><g id="_6--SpezifikatioFuerKomponenten-Software" serif:id="6--SpezifikatioFuerKomponenten&amp;Software"></g><g id="_5--Systemkonzepte-Integration" serif:id="5--Systemkonzepte&amp;Integration"></g><g id="_5--Systemkonzepte-Integration1" serif:id="5--Systemkonzepte&amp;Integration"><rect id="_5-2--Systemkonzepte-Integration" serif:id="5-2--Systemkonzepte&amp;Integration" x="0" y="0" width="1000" height="1000" style="fill:none;"/><clipPath id="_clip1"><rect id="_5-2--Systemkonzepte-Integration1" serif:id="5-2--Systemkonzepte&amp;Integration" x="0" y="0" width="1000" height="1000"/></clipPath><g clip-path="url(#_clip1)"><path d="M360,50c-0,0 -200.84,220.288 -260,450l0,270" style="fill:none;stroke:#0f3157;stroke-width:37.5px;"/><circle cx="610" cy="210" r="40" style="fill:none;stroke:#0f3157;stroke-width:20.83px;"/><path d="M623.134,280c-17.834,0 -31.399,15.226 -30.361,40.481c0.816,19.833 -5.348,75.459 -2.773,109.519c0.619,8.186 0.779,13.7 1.23,20c0.739,10.304 1.388,19.869 1.388,19.869c0,-0 -58.004,-2.924 -95.334,2.416c-42.11,6.025 -55.017,19.481 -57.284,27.224c-13.562,46.314 -7.449,16.347 -10,60.491c-2.613,45.213 -6.815,122.486 -6.815,122.486l-56.069,0.744l-7.695,8.081l87.238,18.689c-0,0 21.566,-99.25 25.977,-121.631c4.411,-22.381 6.228,-56.49 6.228,-56.49c0,-0 12.598,-10.094 35.826,-11.061c41.848,-1.741 109.666,2.901 128.685,2.069c19.018,-0.832 20.207,-50.157 20.24,-70.842c0.162,-100.7 -7.835,-143.316 -7.835,-143.316c0,-0 -7.561,-28.729 -32.646,-28.729Z" style="fill:none;stroke:#0f3157;stroke-width:20.83px;"/><path d="M620,290c-21.529,-4.56 -59.527,111.005 -59.527,111.005c-28.572,-5.158 -17.011,2.693 -110.473,-21.005l-7.153,8.468l28.443,11.532l12.443,13.382l96.267,16.618l20,-20c0,0 17.015,-35.87 30,-60c11.111,-20.647 18.848,-53.89 -10,-60Z" style="fill:#fff;stroke:#0f3157;stroke-width:20.83px;"/><path d="M579.998,690c5.522,-0 10,-4.477 10,-10c-0,-21.461 -0,-70 -0,-70l-39.998,0l0,-30l150,-0l0,30l-40,-0c-0,-0 0.001,48.54 0.002,70c0,5.523 4.477,10 10,10c1.608,0 3.303,-0 4.998,-0c3.978,-0 7.794,1.58 10.607,4.393c2.813,2.813 4.393,6.629 4.393,10.607c0,23.164 0,65 0,65l-130,0l-0,-65c-0,-3.978 1.58,-7.794 4.393,-10.607c2.813,-2.813 6.629,-4.393 10.607,-4.393c1.695,0 3.389,0 4.998,0Z" style="fill:#fff;"/><path d="M579.998,690c5.522,-0 10,-4.477 10,-10l-0,-70l-39.998,0l0,-30l150,-0l0,30l-40,-0l0.002,70c0,5.523 4.477,10 10,10l4.998,-0c3.978,-0 7.794,1.58 10.607,4.393c2.813,2.813 4.393,6.629 4.393,10.607l0,65l-130,0l-0,-65c-0,-3.978 1.58,-7.794 4.393,-10.607c2.813,-2.813 6.629,-4.393 10.607,-4.393l4.998,0Zm28.713,-89.167c1.358,2.767 2.12,5.878 2.12,9.167l-0,70l-0.626,6.192l-1.806,5.816l-2.846,5.246l-3.753,4.548l-4.549,3.753l-5.245,2.847l-5.816,1.805l-5.357,0.542l0,38.418l88.334,-0l-0,-38.418l-5.357,-0.542l-5.816,-1.805l-5.245,-2.847l-4.549,-3.752l-3.753,-4.549l-2.846,-5.245l-1.806,-5.816l-0.626,-6.192l-0.002,-70c-0,-3.208 0.739,-6.34 2.125,-9.168l-32.581,0Z" style="fill:#0f3157;"/><path d="M132.095,405l207.905,-85l60,0l50,110l-40,20l-90,0l-40,50l0,200l191.29,40l0,30" style="fill:none;stroke:#0f3157;stroke-width:37.5px;"/><path d="M671.269,535.457c3.72,-34.061 16.109,-63.539 30.022,-91.345c7.173,-14.337 15.597,-47.39 17.876,-56.616l-0,-47.496c-0,-11.506 9.327,-20.833 20.833,-20.833l20,-0c11.506,-0 20.833,9.327 20.833,20.833l0,50c0,1.996 -0.286,3.981 -0.851,5.895l-44.466,150.72l-0,26.772c-0,11.506 -9.327,20.833 -20.833,20.833l-194.683,0c-11.506,0 -20.833,-9.327 -20.833,-20.833l-0,-17.097c-0,-11.506 9.327,-20.833 20.833,-20.833l151.269,-0Zm19.699,20.833l-170.968,0l-0,17.097l194.683,0l-0,-29.781l45.317,-153.606l0,-50l-20,-0l0,50c0,0 -11.064,45.419 -20.078,63.434c-15.302,30.583 -28.954,63.268 -28.954,102.856Z" style="fill:#0f3157;"/><path d="M719.167,280l-0,-60c-0,-11.506 9.327,-20.833 20.833,-20.833l20.002,-0c11.506,-0 20.834,9.327 20.834,20.833l-0,60c-0,11.506 -9.328,20.833 -20.834,20.833l-20.002,0c-11.506,0 -20.833,-9.327 -20.833,-20.833Zm20.833,-0l20.002,-0l0,-60l-20.002,-0l-0,60Z" style="fill:#0f3157;"/><path d="M120,780l760,0" style="fill:none;stroke:#0f3157;stroke-width:29.17px;"/><path d="M460,410l-40,-90l20,44.672c0,-0 -155.864,66.534 -205.208,87.598c-8.971,3.829 -14.792,12.643 -14.792,22.397c0,77.12 0,405.333 0,405.333" style="fill:none;stroke:#ee7900;stroke-width:12.5px;"/><path id="LOGO--Grenze" d="M500,-0.491c275.958,-0 500,224.042 500,500c0,275.957 -224.042,500 -500,500c-275.958,-0 -500,-224.043 -500,-500c0,-275.958 224.042,-500 500,-500Zm0,41.666c-252.961,0 -458.333,205.372 -458.333,458.334c-0,252.961 205.372,458.333 458.333,458.333c252.961,-0 458.333,-205.372 458.333,-458.333c0,-252.962 -205.372,-458.334 -458.333,-458.334Z" style="fill:#0f3157;"/><path d="M420,320l40,90" style="fill:none;stroke:#ee7900;stroke-width:29.17px;"/></g></g><g id="_4--Schnittstellenanalyse" serif:id="4--Schnittstellenanalyse"></g><g id="_3--Risikoanalyse" serif:id="3--Risikoanalyse"></g><g id="_3--Risikoanalyse1" serif:id="3--Risikoanalyse"></g><g id="_2--EntwicklungVonFahrzeugkonzepten" serif:id="2--EntwicklungVonFahrzeugkonzepten"></g><g id="_2--EntwicklungVonFahrzeugkonzepten1" serif:id="2--EntwicklungVonFahrzeugkonzepten"></g><g id="_1--Anforderungsmanagement" serif:id="1--Anforderungsmanagement"></g></svg>