<?xml version="1.0" encoding="UTF-8" standalone="no"?>
<!DOCTYPE svg PUBLIC "-//W3C//DTD SVG 1.1//EN" "http://www.w3.org/Graphics/SVG/1.1/DTD/svg11.dtd">
<svg width="100%" height="100%" viewBox="0 0 1000 1000" version="1.1" xmlns="http://www.w3.org/2000/svg" xmlns:xlink="http://www.w3.org/1999/xlink" xml:space="preserve" xmlns:serif="http://www.serif.com/" style="fill-rule:evenodd;clip-rule:evenodd;stroke-linecap:round;stroke-linejoin:round;stroke-miterlimit:1.5;">
    <g transform="matrix(1,0,0,1,-5500,-1.98952e-12)">
        <g id="_9--Aenderungsmanagement-Baubetreuung" serif:id="9--Aenderungsmanagement&amp;Baubetreuung">
        </g>
        <g id="_8--Sicherheitsnachweis" serif:id="8--Sicherheitsnachweis">
        </g>
        <g id="_7--Schaltplanerstellung-Kabeldesign" serif:id="7--Schaltplanerstellung&amp;Kabeldesign">
        </g>
        <g id="_6--SpezifikatioFuerKomponenten-Software" serif:id="6--SpezifikatioFuerKomponenten&amp;Software">
        </g>
        <g id="_6-5--Spezifikationen-für-Komponenten---Software" serif:id="6-5--Spezifikationen für Komponenten &amp; Software" transform="matrix(0.390625,0,0,0.694444,5500,1.98952e-12)">
            <rect x="0" y="0" width="2560" height="1440" style="fill:none;"/>
            <clipPath id="_clip1">
                <rect x="0" y="0" width="2560" height="1440"/>
            </clipPath>
            <g clip-path="url(#_clip1)">
                <g transform="matrix(3.72996,0,0,2.80283,-21599.7,-5482.94)">
                    <path d="M6385,2375.7L6065,2375.7" style="fill:none;stroke:rgb(15,49,87);stroke-width:12.12px;"/>
                </g>
                <g transform="matrix(5.78236,0,0,2.95536,-34783.9,-7081.07)">
                    <rect x="6271" y="2777" width="75" height="32" style="fill:white;"/>
                    <rect x="6271" y="2777" width="75" height="32" style="fill:rgb(15,49,87);"/>
                </g>
                <g transform="matrix(3.95461,0,0,2.22447,-23239,-5041.8)">
                    <path d="M6310,2655.7L6395,2655.7L6395,2710.7C6395,2710.7 6395.38,2722.56 6409.89,2746.73C6417.14,2758.81 6420,2778.49 6420,2778.49C6420,2778.49 6430.68,2822.39 6395,2835.7C6360.53,2848.56 6341.18,2815.7 6338.09,2805.7C6335,2795.7 6320,2755.7 6320,2755.7C6320,2755.7 6310,2723.62 6310,2710.7L6310,2655.7Z" style="fill:white;"/>
                    <path d="M6310,2655.7L6395,2655.7L6395,2710.7C6395,2710.7 6395.38,2722.56 6409.89,2746.73C6417.14,2758.81 6420,2778.49 6420,2778.49C6420,2778.49 6430.68,2822.39 6395,2835.7C6360.53,2848.56 6341.18,2815.7 6338.09,2805.7C6335,2795.7 6320,2755.7 6320,2755.7C6320,2755.7 6310,2723.62 6310,2710.7L6310,2655.7ZM6328.88,2674.58L6328.88,2710.7C6328.88,2721.05 6336.51,2745.34 6337.83,2749.48C6339.43,2753.76 6353.16,2790.52 6356.13,2800.13C6357.9,2805.87 6368.64,2825.39 6388.4,2818.01C6398.12,2814.38 6401.21,2806.35 6402.18,2799.46C6403.44,2790.62 6401.65,2782.95 6401.65,2782.95C6401.51,2782.38 6401.4,2781.8 6401.32,2781.21C6401.32,2781.21 6399.33,2765.84 6393.69,2756.44C6375.68,2726.41 6376.13,2711.31 6376.13,2711.31C6376.12,2711.11 6376.12,2710.9 6376.12,2710.7L6376.12,2674.58L6328.88,2674.58Z" style="fill:rgb(15,49,87);"/>
                </g>
                <g transform="matrix(4.09097,0,0,2.30117,-24047.7,-5287.39)">
                    <path d="M5917.48,2496.24C5921.61,2495.88 5925.78,2495.7 5930,2495.7C6010.03,2495.7 6075,2560.67 6075,2640.7C6075,2713.96 6020.55,2774.61 5949.94,2784.34" style="fill:none;stroke:rgb(15,49,87);stroke-width:13.04px;"/>
                </g>
                <g transform="matrix(6.00009,0,0,3.37505,-35368.7,-8123.19)">
                    <path d="M5945.9,2496.56C6018.46,2504.49 6075,2566.05 6075,2640.7C6075,2703.93 6034.44,2757.76 5977.94,2777.58" style="fill:none;stroke:rgb(15,49,87);stroke-width:5.33px;"/>
                </g>
                <g transform="matrix(2.52044,0,0,1.41775,-13881.4,-6123.11)">
                    <path d="M5845,4384.73C6026.15,4478.89 6150,4668.3 6150,4886.4C6150,5052.17 6078.46,5201.35 5964.6,5304.75" style="fill:none;stroke:rgb(15,49,87);stroke-width:38.09px;stroke-linejoin:miter;stroke-miterlimit:1;"/>
                </g>
                <g transform="matrix(5.64944,0,0,3.17781,-33289.4,-7602.33)">
                    <path d="M5901.93,2576.56C5910.53,2572.79 5920.02,2570.7 5930,2570.7C5968.63,2570.7 6000,2602.07 6000,2640.7C6000,2679.34 5968.63,2710.7 5930,2710.7C5928.92,2710.7 5927.84,2710.68 5926.77,2710.63" style="fill:none;stroke:rgb(15,49,87);stroke-width:5.66px;"/>
                </g>
                <g transform="matrix(10.5456,0,0,5.93191,-62323.7,-14875.1)">
                    <circle cx="5930" cy="2640.7" r="15" style="fill:rgb(15,49,87);"/>
                </g>
                <g transform="matrix(2.6364,0,-1.90407e-32,1.48298,-15422.1,-3382.6)">
                    <circle cx="5930" cy="2640.7" r="15" style="fill:rgb(15,49,87);"/>
                </g>
                <g transform="matrix(-2.6364,-5.45021e-15,9.68926e-15,-1.48298,15845.7,4961.23)">
                    <circle cx="5930" cy="2640.7" r="15" style="fill:rgb(15,49,87);"/>
                </g>
                <g transform="matrix(-2.28319,0.741489,-1.3182,-1.2843,17459.5,5.27017)">
                    <circle cx="5930" cy="2640.7" r="15" style="fill:rgb(15,49,87);"/>
                </g>
                <g transform="matrix(-1.3182,1.2843,-2.28319,-0.741489,14451.8,-4740.61)">
                    <circle cx="5930" cy="2640.7" r="15" style="fill:rgb(15,49,87);"/>
                </g>
                <g transform="matrix(-1.45339e-14,1.48298,-2.6364,-8.17531e-15,7628.55,-8004.74)">
                    <circle cx="5930" cy="2640.7" r="15" style="fill:rgb(15,49,87);"/>
                </g>
                <g transform="matrix(1.3182,1.2843,-2.28319,0.741489,-1182.05,-8912.52)">
                    <circle cx="5930" cy="2640.7" r="15" style="fill:rgb(15,49,87);"/>
                </g>
                <g transform="matrix(2.28319,0.741489,-1.3182,1.2843,-9619.16,-7220.7)">
                    <circle cx="5930" cy="2640.7" r="15" style="fill:rgb(15,49,87);"/>
                </g>
                <g transform="matrix(2.6364,1.09004e-14,-1.93785e-14,1.48298,-15422.1,-3382.6)">
                    <circle cx="5930" cy="2640.7" r="15" style="fill:rgb(15,49,87);"/>
                </g>
                <g transform="matrix(4.63561,0,0,2.60753,-27581.5,-6108.38)">
                    <circle cx="6380" cy="2795" r="17" style="fill:rgb(15,49,87);"/>
                </g>
                <g transform="matrix(3.87812,0,0,2.22447,-22750.7,-5041.8)">
                    <path d="M6325,2600.7L6325,2520.7L6320,2520.7L6320,2510.7L6340,2510.7L6340,2479.7L6365,2479.7L6365,2510.7L6385,2510.7L6385,2520.7L6380,2520.7L6380,2600.7L6385,2600.7L6385,2655.7L6320,2655.7L6320,2600.7L6325,2600.7Z" style="fill:rgb(15,49,87);"/>
                    <path d="M6325,2600.7L6325,2520.7L6320,2520.7L6320,2510.7L6340,2510.7L6340,2479.7L6365,2479.7L6365,2510.7L6385,2510.7L6385,2520.7L6380,2520.7L6380,2600.7L6385,2600.7L6385,2655.7L6320,2655.7L6320,2600.7L6325,2600.7ZM6325,2601.35L6320.66,2601.35L6320.66,2655.05L6384.34,2655.05L6384.34,2601.35L6380,2601.35C6379.64,2601.35 6379.34,2601.06 6379.34,2600.7L6379.34,2520.7C6379.34,2520.34 6379.64,2520.05 6380,2520.05L6384.34,2520.05L6384.34,2511.35L6365,2511.35C6364.64,2511.35 6364.34,2511.06 6364.34,2510.7L6364.34,2480.35L6340.66,2480.35L6340.66,2510.7C6340.66,2511.06 6340.36,2511.35 6340,2511.35L6320.66,2511.35L6320.66,2520.05L6325,2520.05C6325.36,2520.05 6325.66,2520.34 6325.66,2520.7L6325.66,2600.7C6325.66,2601.06 6325.36,2601.35 6325,2601.35Z" style="fill:rgb(15,49,87);"/>
                </g>
                <g transform="matrix(4.92122,0,0,2.55814,-29200.4,-5959.28)">
                    <path d="M6211.9,2725.7L6211.9,2425.7C6211.9,2425.7 6170.59,2436.87 6149.73,2442.52C6142.27,2444.54 6136.02,2450.02 6132.66,2457.5C6118.74,2488.41 6080.95,2572.34 6061.73,2615.03C6054.47,2631.16 6054.75,2650.08 6062.49,2665.96C6081.05,2704 6115.6,2774.84 6130.65,2805.69C6135.15,2814.92 6144,2820.7 6153.65,2820.7L6235,2820.7L6235,2755.7L6211.9,2725.7Z" style="fill:white;"/>
                    <path d="M6211.9,2725.7L6235,2755.7L6235,2820.7L6153.65,2820.7C6144,2820.7 6135.15,2814.92 6130.65,2805.69L6062.49,2665.96C6054.75,2650.08 6054.47,2631.16 6061.73,2615.03L6132.66,2457.5C6136.02,2450.02 6142.27,2444.54 6149.73,2442.52L6211.9,2425.7L6211.9,2725.7ZM6192.39,2725.7L6192.39,2452.74L6154.46,2463C6152.6,2463.5 6151.03,2464.87 6150.19,2466.74L6079.27,2624.27C6074.73,2634.36 6074.91,2646.18 6079.75,2656.1L6147.9,2795.84C6149.03,2798.15 6151.24,2799.59 6153.65,2799.59L6215.49,2799.59L6215.49,2763.34L6196.91,2739.21C6193.99,2735.42 6192.39,2730.64 6192.39,2725.7Z" style="fill:rgb(238,121,0);"/>
                </g>
                <g transform="matrix(3.14856,0,0,2.22447,-18017.2,-5084.83)">
                    <path d="M6385,2375.7L6093.82,2375.7" style="fill:none;stroke:rgb(15,49,87);stroke-width:26.86px;"/>
                </g>
                <g transform="matrix(3.35398,0,0,1.88662,-19934.5,-3584.1)">
                    <circle cx="6382.5" cy="2518.2" r="47.5" style="fill:white;"/>
                    <path d="M6382.5,2470.7C6408.72,2470.7 6430,2491.99 6430,2518.2C6430,2544.42 6408.72,2565.7 6382.5,2565.7C6356.28,2565.7 6335,2544.42 6335,2518.2C6335,2491.99 6356.28,2470.7 6382.5,2470.7ZM6382.5,2486.6C6365.06,2486.6 6350.9,2500.76 6350.9,2518.2C6350.9,2535.64 6365.06,2549.8 6382.5,2549.8C6399.94,2549.8 6414.1,2535.64 6414.1,2518.2C6414.1,2500.76 6399.94,2486.6 6382.5,2486.6Z" style="fill:rgb(238,121,0);"/>
                </g>
                <g transform="matrix(4.78716,0,0,2.69278,-29081.7,-6419.84)">
                    <circle cx="6382.5" cy="2518.2" r="47.5" style="fill:white;"/>
                    <path d="M6382.5,2470.7C6408.72,2470.7 6430,2491.99 6430,2518.2C6430,2544.42 6408.72,2565.7 6382.5,2565.7C6356.28,2565.7 6335,2544.42 6335,2518.2C6335,2491.99 6356.28,2470.7 6382.5,2470.7ZM6382.5,2481.84C6362.43,2481.84 6346.14,2498.13 6346.14,2518.2C6346.14,2538.27 6362.43,2554.56 6382.5,2554.56C6402.57,2554.56 6418.86,2538.27 6418.86,2518.2C6418.86,2498.13 6402.57,2481.84 6382.5,2481.84Z" style="fill:rgb(238,121,0);"/>
                </g>
                <g transform="matrix(4.5478,0,0,2.55814,-26860.5,-5962.61)">
                    <circle cx="6230" cy="2472" r="30" style="fill:white;"/>
                    <path d="M6230,2442C6246.56,2442 6260,2455.44 6260,2472C6260,2488.56 6246.56,2502 6230,2502C6213.44,2502 6200,2488.56 6200,2472C6200,2455.44 6213.44,2442 6230,2442ZM6230,2449.04C6217.33,2449.04 6207.04,2459.33 6207.04,2472C6207.04,2484.67 6217.33,2494.96 6230,2494.96C6242.67,2494.96 6252.96,2484.67 6252.96,2472C6252.96,2459.33 6242.67,2449.04 6230,2449.04Z" style="fill:rgb(238,121,0);"/>
                </g>
                <g transform="matrix(5.51032,0,0,2.55814,-32795.1,-5959.28)">
                    <path d="M6200,2520L6200,2726.09L6139.29,2726.09C6136.83,2726.09 6134.46,2724.91 6132.72,2722.79C6130.98,2720.68 6130,2717.82 6130,2714.83L6130,2531.26C6130,2528.27 6130.98,2525.41 6132.72,2523.3C6134.46,2521.19 6136.83,2520 6139.29,2520L6200,2520ZM6194.19,2527.04L6139.29,2527.04C6138.37,2527.04 6137.48,2527.48 6136.83,2528.27C6136.17,2529.07 6135.81,2530.14 6135.81,2531.26L6135.81,2714.83C6135.81,2715.95 6136.17,2717.03 6136.83,2717.82C6137.48,2718.61 6138.37,2719.05 6139.29,2719.05L6194.19,2719.05L6194.19,2527.04Z" style="fill:rgb(238,121,0);"/>
                </g>
                <g transform="matrix(4.65227,0,0,2.55814,-27468.6,-5959.28)">
                    <path d="M6110,2660.7C6093.44,2660.7 6080,2647.26 6080,2630.7C6080,2614.14 6093.44,2600.7 6110,2600.7L6160,2590.7L6184.5,2590.7C6187.54,2590.7 6190,2593.22 6190,2596.33L6190,2665.07C6190,2668.18 6187.54,2670.7 6184.5,2670.7L6160,2670.7L6110,2660.7Z" style="fill:white;"/>
                    <path d="M6110,2660.7C6093.44,2660.7 6080,2647.26 6080,2630.7C6080,2614.14 6093.44,2600.7 6110,2600.7L6160,2590.7L6184.5,2590.7C6187.54,2590.7 6190,2593.22 6190,2596.33L6190,2665.07C6190,2668.18 6187.54,2670.7 6184.5,2670.7L6160,2670.7L6110,2660.7ZM6183.12,2663.66L6183.12,2597.74L6160.67,2597.74L6111.32,2607.61C6110.89,2607.69 6110.44,2607.74 6110,2607.74C6097.28,2607.74 6086.88,2617.98 6086.88,2630.7C6086.88,2643.42 6097.28,2653.66 6110,2653.66C6110.44,2653.66 6110.89,2653.71 6111.32,2653.8L6160.67,2663.66L6183.12,2663.66Z" style="fill:rgb(238,121,0);"/>
                </g>
                <g transform="matrix(4.84879,0,0,2.22447,-28827.2,-5084.83)">
                    <path d="M6272.67,2560L6460,2560" style="fill:none;stroke:rgb(15,49,87);stroke-width:7.23px;"/>
                </g>
                <g transform="matrix(3.18628,0,0,1.79228,-18197.3,-5871.86)">
                    <circle cx="6010" cy="3706.03" r="16.771" style="fill:rgb(238,121,0);"/>
                </g>
                <g transform="matrix(3.18628,0,0,1.79228,-18049.3,-6090.66)">
                    <circle cx="6010" cy="3706.03" r="16.771" style="fill:rgb(238,121,0);"/>
                </g>
                <g transform="matrix(3.18628,0,0,1.79228,-18049.3,-5693.74)">
                    <circle cx="6010" cy="3706.03" r="16.771" style="fill:rgb(238,121,0);"/>
                </g>
                <g transform="matrix(3.18628,0,0,1.79228,-17910.6,-6090.66)">
                    <circle cx="6010" cy="3706.03" r="16.771" style="fill:rgb(238,121,0);"/>
                </g>
                <g transform="matrix(3.18628,0,0,1.79228,-17910.6,-5693.74)">
                    <circle cx="6010" cy="3706.03" r="16.771" style="fill:rgb(238,121,0);"/>
                </g>
                <g transform="matrix(3.18628,0,0,1.79228,-17677.2,-6281.16)">
                    <circle cx="6010" cy="3706.03" r="16.771" style="fill:rgb(238,121,0);"/>
                </g>
                <g id="LOGO--Grenze" transform="matrix(2.56,0,0,1.44,0,-2102.4)">
                    <path d="M500,1460C775.958,1460 1000,1684.04 1000,1960C1000,2235.96 775.958,2460 500,2460C224.042,2460 0,2235.96 0,1960C0,1684.04 224.042,1460 500,1460ZM500,1500C246.119,1500 40,1706.12 40,1960C40,2213.88 246.119,2420 500,2420C753.881,2420 960,2213.88 960,1960C960,1706.12 753.881,1500 500,1500Z" style="fill:rgb(15,49,87);"/>
                </g>
            </g>
        </g>
        <g id="_5--Systemkonzepte-Integration" serif:id="5--Systemkonzepte&amp;Integration">
        </g>
        <g id="_5--Systemkonzepte-Integration1" serif:id="5--Systemkonzepte&amp;Integration">
        </g>
        <g id="_4--Schnittstellenanalyse" serif:id="4--Schnittstellenanalyse">
        </g>
        <g id="_3--Risikoanalyse" serif:id="3--Risikoanalyse">
        </g>
        <g id="_3--Risikoanalyse1" serif:id="3--Risikoanalyse">
        </g>
        <g id="_2--EntwicklungVonFahrzeugkonzepten" serif:id="2--EntwicklungVonFahrzeugkonzepten">
        </g>
        <g id="_2--EntwicklungVonFahrzeugkonzepten1" serif:id="2--EntwicklungVonFahrzeugkonzepten">
        </g>
        <g id="_1--Anforderungsmanagement" serif:id="1--Anforderungsmanagement">
        </g>
    </g>
</svg>
