<?xml version="1.0" encoding="UTF-8" standalone="no"?><!DOCTYPE svg PUBLIC "-//W3C//DTD SVG 1.1//EN" "http://www.w3.org/Graphics/SVG/1.1/DTD/svg11.dtd"><svg width="100%" height="100%" viewBox="0 0 1000 1000" version="1.1" xmlns="http://www.w3.org/2000/svg" xmlns:xlink="http://www.w3.org/1999/xlink" xml:space="preserve" xmlns:serif="http://www.serif.com/" style="fill-rule:evenodd;clip-rule:evenodd;stroke-linejoin:round;stroke-miterlimit:2;"><g id="_9--Aenderungsmanagement-Baubetreuung" serif:id="9--Aenderungsmanagement&amp;Baubetreuung"><rect id="_9-5--Aenderungsmanagement-Baubetreuung" serif:id="9-5--Aenderungsmanagement&amp;Baubetreuung" x="0" y="0" width="1000" height="1000" style="fill:none;"/><clipPath id="_clip1"><rect id="_9-5--Aenderungsmanagement-Baubetreuung1" serif:id="9-5--Aenderungsmanagement&amp;Baubetreuung" x="0" y="0" width="1000" height="1000"/></clipPath><g clip-path="url(#_clip1)"><g id="ICE"></g><g id="Ebene1"></g><path d="M277.396,600.862c8.87,2.913 17.026,7.88 23.751,14.605c11.271,11.271 17.603,26.558 17.603,42.497l-0,20.682c0,15.94 -6.332,31.228 -17.604,42.5c-11.272,11.272 -26.56,17.604 -42.5,17.604l-8.271,-0c-10.356,0 -18.75,-8.395 -18.75,-18.75l-0,-41.83l-13.983,-9.613l-12.616,9.251l-0,42.192c-0,10.355 -8.395,18.75 -18.75,18.75l-10.339,-0c-15.941,-0 -31.228,-6.332 -42.5,-17.604c-11.272,-11.272 -17.604,-26.56 -17.604,-42.5l-0,-20.682c-0,-15.939 6.332,-31.226 17.603,-42.497c6.725,-6.725 14.88,-11.692 23.751,-14.605l-0,-108.311l0,-108.312c-8.87,-2.913 -17.025,-7.88 -23.75,-14.605c-11.272,-11.272 -17.604,-26.56 -17.604,-42.5l-0,-20.677c-0,-15.941 6.332,-31.229 17.604,-42.501c11.271,-11.271 26.559,-17.604 42.5,-17.604l8.271,0c10.355,0 18.75,8.395 18.75,18.75l-0,41.83l13.983,9.614l12.616,-9.252l0,-42.192c0,-10.355 8.395,-18.75 18.75,-18.75l10.339,0c15.94,0 31.228,6.333 42.5,17.604c11.272,11.272 17.604,26.56 17.604,42.501l-0,20.677c0,15.94 -6.332,31.228 -17.604,42.5c-6.725,6.725 -14.88,11.692 -23.75,14.605l-0,108.312l-0,108.311Zm-101.459,34.502l-0.004,0c-5.994,0 -11.743,2.381 -15.981,6.62c-4.238,4.238 -6.619,9.986 -6.619,15.98l-0,20.682c-0,5.995 2.381,11.744 6.62,15.983c2.182,2.182 4.763,3.871 7.573,4.998l-0,-31.32c-0,-5.973 2.845,-11.588 7.661,-15.12l31.016,-22.745c6.431,-4.715 15.14,-4.848 21.711,-0.331l33.083,22.745c5.088,3.498 8.128,9.277 8.128,15.451l-0,30.367c2.011,-1.052 3.87,-2.41 5.504,-4.045c4.239,-4.239 6.621,-9.988 6.621,-15.983l-0,-20.682c0,-5.994 -2.381,-11.742 -6.619,-15.98c-4.239,-4.239 -9.987,-6.62 -15.981,-6.62l-0.004,0c-10.356,0 -18.75,-8.395 -18.75,-18.75l-0,-124.063l-0,-124.063c-0,-10.355 8.394,-18.75 18.75,-18.75c5.995,0 11.744,-2.381 15.983,-6.621c4.239,-4.239 6.621,-9.988 6.621,-15.983l-0,-20.677c0,-5.995 -2.382,-11.745 -6.621,-15.984c-2.181,-2.182 -4.763,-3.871 -7.572,-4.998l0,31.32c0,5.973 -2.845,11.588 -7.662,15.12l-31.016,22.745c-6.43,4.716 -15.139,4.848 -21.71,0.331l-33.084,-22.745c-5.087,-3.498 -8.127,-9.277 -8.127,-15.451l-0,-30.367c-2.011,1.052 -3.87,2.41 -5.505,4.045c-4.239,4.239 -6.62,9.989 -6.62,15.984l-0,20.677c-0,5.995 2.381,11.744 6.62,15.983c4.239,4.24 9.989,6.621 15.984,6.621c10.355,0 18.75,8.395 18.75,18.75l-0,124.063l-0,124.063c-0,10.355 -8.395,18.75 -18.75,18.75Z" style="fill:#0f3157;"/><path id="LOGO--Grenze" d="M500,0c275.958,0 500,224.042 500,500c0,275.958 -224.042,500 -500,500c-275.958,0 -500,-224.042 -500,-500c0,-275.958 224.042,-500 500,-500Zm0,40c-253.881,0 -460,206.119 -460,460c0,253.881 206.119,460 460,460c253.881,0 460,-206.119 460,-460c0,-253.881 -206.119,-460 -460,-460Z" style="fill:#0f3157;"/><path d="M646.039,680.366l7.922,19.268c-112.986,46.455 -143.975,55.087 -185.061,50.724c-42.533,-4.515 -67.818,-30.646 -82.225,-66.383c-13.406,-33.255 -17.092,-75.142 -17.092,-113.975c0,-75.412 5.924,-73.548 12.249,-151.627l20.765,1.682c-6.255,77.215 -12.18,75.366 -12.18,149.945c-0,36.162 3.096,75.218 15.581,106.185c11.484,28.486 31.198,49.857 65.102,53.457c38.914,4.131 67.924,-5.277 174.939,-49.276Z" style="fill:#0f3157;"/><path d="M352.92,394.763c2.051,0.711 4.417,1.435 6.721,1.923c13.437,2.848 34.1,4.563 65.687,4.563c41.824,-0 83.475,0.403 133.556,-9.739c50.107,-10.147 83.518,-21.405 83.518,-21.405c1.925,-0.65 3.942,-0.983 5.973,-0.987l61.596,-0.094l0.058,37.5l-58.627,0.089c-9.562,3.064 -41.263,12.779 -85.075,21.651c-52.878,10.708 -96.839,10.485 -140.999,10.485c-42.974,-0 -68.069,-3.319 -82.624,-7.694c-15.167,-4.557 -22.317,-11.161 -26.175,-16.85l-4.14,-8.937l-1.137,-8.179c-0.041,-3.521 0.968,-9.782 0.968,-9.782c-0,0 -0.02,0.383 -0.02,0.561l0.987,-6.522l3.655,-7.144l4.119,-4.411c1.607,-1.398 3.574,-2.811 5.878,-4.158c8.891,-5.2 25.66,-9.831 37.812,-12.735c5.133,-55.005 37.153,-241.648 235.349,-241.648c76.645,0 123.275,21.285 152.117,51.445c42.717,44.67 46.633,111.275 46.633,167.305l-37.5,0c0,-47.086 -0.337,-103.848 -36.236,-141.388c-23.567,-24.645 -62.384,-39.862 -125.014,-39.862c-197.364,0 -198.822,219.648 -198.822,219.648c-0.101,8.996 -6.577,16.653 -15.431,18.244c-0,0 -19.62,3.227 -32.827,8.121Zm-3.295,-5.325c0.051,-0.524 0.075,-1.048 0.075,-1.57c0,0.428 -0.028,0.968 -0.075,1.57Z" style="fill:#ee7900;"/><path d="M330.382,835.257c-1.097,1.188 -3.87,4.203 -6.974,7.661c-19.205,21.399 -65.263,73.669 -66.042,74.448l-14.732,-14.732c0.868,-0.867 58.452,-66.293 71.117,-80.096c2.516,-2.742 4.257,-4.127 4.541,-4.306c26.019,-16.433 128.882,-37.485 166.351,-44.596l0.02,-0.004c2.853,-0.536 4.92,-3.027 4.92,-5.93l0,-24.972l20.834,-0l-0,24.972c-0,12.927 -9.206,24.021 -21.89,26.402c-35.339,6.707 -131.807,25.567 -158.145,41.153Z" style="fill:#0f3157;"/><path d="M684.314,718.728l11.372,-17.456c10.501,6.841 14.468,19.282 17.122,31.918c0.918,4.371 1.723,8.702 3.145,12.411c0.736,1.92 1.492,3.716 3.131,4.719l0.121,0.075c0.284,0.179 0.601,0.298 0.931,0.349l0.182,0.03c4.108,0.713 39.462,6.778 74.736,22.376c24.47,10.82 48.733,26.282 63.465,47.221l-17.038,11.988c-12.66,-17.995 -33.824,-30.857 -54.853,-40.156c-32.771,-14.491 -65.623,-20.166 -69.785,-20.887c-3.088,-0.493 -6.046,-1.603 -8.696,-3.264c-7.92,-4.881 -11.996,-13.911 -14.43,-24.543c-1.235,-5.394 -2.137,-11.219 -3.928,-16.438c-1.138,-3.312 -2.541,-6.432 -5.475,-8.343Z" style="fill:#0f3157;"/><g><path d="M870.405,399.439l-67.947,289.615c-6.885,29.348 -36.303,47.586 -65.652,40.7l-70.902,-16.634c-29.349,-6.886 -47.586,-36.304 -40.701,-65.652l67.947,-289.615c6.886,-29.349 36.304,-47.586 65.653,-40.7l70.902,16.634c29.348,6.886 47.586,36.304 40.7,65.652Zm-36.509,-8.565c2.159,-9.199 -3.558,-18.42 -12.757,-20.578l-70.902,-16.635c-9.199,-2.158 -18.42,3.559 -20.578,12.758l-67.947,289.614c-2.158,9.199 3.558,18.42 12.757,20.578l70.902,16.635c9.199,2.158 18.42,-3.559 20.578,-12.758l67.947,-289.614Z" style="fill:#0f3157;"/></g></g></g><g id="_8--Sicherheitsnachweis" serif:id="8--Sicherheitsnachweis"></g><g id="_7--Schaltplanerstellung-Kabeldesign" serif:id="7--Schaltplanerstellung&amp;Kabeldesign"></g><g id="_6--SpezifikatioFuerKomponenten-Software" serif:id="6--SpezifikatioFuerKomponenten&amp;Software"></g><g id="_5--Systemkonzepte-Integration" serif:id="5--Systemkonzepte&amp;Integration"></g><g id="_5--Systemkonzepte-Integration1" serif:id="5--Systemkonzepte&amp;Integration"></g><g id="_4--Schnittstellenanalyse" serif:id="4--Schnittstellenanalyse"></g><g id="_3--Risikoanalyse" serif:id="3--Risikoanalyse"></g><g id="_3--Risikoanalyse1" serif:id="3--Risikoanalyse"></g><g id="_2--EntwicklungVonFahrzeugkonzepten" serif:id="2--EntwicklungVonFahrzeugkonzepten"></g><g id="_2--EntwicklungVonFahrzeugkonzepten1" serif:id="2--EntwicklungVonFahrzeugkonzepten"></g><g id="_1--Anforderungsmanagement" serif:id="1--Anforderungsmanagement"></g></svg>