<?xml version="1.0" encoding="UTF-8" standalone="no"?>
<!DOCTYPE svg PUBLIC "-//W3C//DTD SVG 1.1//EN" "http://www.w3.org/Graphics/SVG/1.1/DTD/svg11.dtd">
<svg width="100%" height="100%" viewBox="0 0 1000 1000" version="1.1" xmlns="http://www.w3.org/2000/svg" xmlns:xlink="http://www.w3.org/1999/xlink" xml:space="preserve" xmlns:serif="http://www.serif.com/" style="fill-rule:evenodd;clip-rule:evenodd;stroke-linejoin:round;stroke-miterlimit:1;">
    <g transform="matrix(1,0,0,1,-2600,0)">
        <g id="_4--LRV" serif:id="4--LRV">
        </g>
        <g id="_3-1--Highspeed" serif:id="3-1--Highspeed" transform="matrix(0.390625,0,0,0.694444,2600,0)">
            <g id="_3--Highspeed" serif:id="3--Highspeed">
                <rect id="_3-1--Highspeed1" serif:id="3-1--Highspeed" x="0" y="0" width="2560" height="1440" style="fill:none;"/>
                <clipPath id="_clip1">
                    <rect id="_3-1--Highspeed2" serif:id="3-1--Highspeed" x="0" y="0" width="2560" height="1440"/>
                </clipPath>
                <g clip-path="url(#_clip1)">
                    <g id="LOGO--Grenze" transform="matrix(2.56,0,0,1.44,3.63798e-12,-2102.4)">
                        <path d="M500,1460C775.958,1460 1000,1684.04 1000,1960C1000,2235.96 775.958,2460 500,2460C224.042,2460 0,2235.96 0,1960C0,1684.04 224.042,1460 500,1460ZM500,1500C246.119,1500 40,1706.12 40,1960C40,2213.88 246.119,2420 500,2420C753.881,2420 960,2213.88 960,1960C960,1706.12 753.881,1500 500,1500Z" style="fill:rgb(19,50,87);"/>
                    </g>
                    <g transform="matrix(2.58409,0,0,1.45355,796.401,-420.756)">
                        <path d="M-238.608,566.856L-109.828,566.856C-60.214,566.856 -12.216,584.495 25.592,616.622C77.971,660.876 162.093,726.618 256.492,780.078C311.567,811.269 427.424,864.197 505.352,898.979C522.916,906.994 535.438,923.106 538.869,942.106C542.3,961.105 536.204,980.579 522.552,994.231C517.386,999.435 514.068,1002.75 514.068,1002.75L147.517,1002.75L147.517,1002.68C147.517,989.56 142.307,976.98 133.032,967.706C123.757,958.431 111.178,953.22 98.061,953.22L-179.998,953.22C-193.08,953.22 -205.619,958.458 -214.814,967.764C-224.01,977.07 -229.096,989.671 -228.939,1002.75C-228.939,1002.75 -228.939,1002.75 -228.939,1002.75L-238.846,1002.75" style="fill:none;stroke:rgb(19,50,87);stroke-width:34.67px;"/>
                    </g>
                    <g transform="matrix(1.72273,0,0,0.9152,1028.97,-34.7525)">
                        <path d="M-374.388,478.532L-374.388,614.676C-374.388,637.7 -363.336,659.146 -345.049,671.604C-285.035,712.464 -144.165,808.169 -28.643,885.08C-12.596,895.745 4.758,904.025 22.933,909.688C100.315,930.419 309.178,982.028 309.178,982.028" style="fill:none;stroke:rgb(19,50,87);stroke-width:22.92px;"/>
                    </g>
                    <g transform="matrix(1.72273,0,0,1.45355,1115.11,61.8353)">
                        <path d="M500,750L173.077,750" style="fill:none;stroke:rgb(19,50,87);stroke-width:24.29px;"/>
                    </g>
                    <g transform="matrix(1.77493,0,0,1.4976,1066.67,28.8)">
                        <path d="M653.846,750L-427.885,750" style="fill:none;stroke:rgb(19,50,87);stroke-width:39.6px;"/>
                    </g>
                    <g transform="matrix(3.5328,0,0,1.9872,-498.688,-715.968)">
                        <path d="M420,860C442.077,860 460,877.923 460,900C460,922.077 442.077,940 420,940C397.923,940 380,922.077 380,900C380,877.923 397.923,860 420,860ZM420,881.739C409.922,881.739 401.739,889.922 401.739,900C401.739,910.078 409.922,918.261 420,918.261C430.078,918.261 438.261,910.078 438.261,900C438.261,889.922 430.078,881.739 420,881.739Z" style="fill:rgb(19,50,87);"/>
                    </g>
                    <g transform="matrix(3.5328,0,0,1.9872,-1087.49,-715.968)">
                        <path d="M420,860C442.077,860 460,877.923 460,900C460,922.077 442.077,940 420,940C397.923,940 380,922.077 380,900C380,877.923 397.923,860 420,860ZM420,881.739C409.922,881.739 401.739,889.922 401.739,900C401.739,910.078 409.922,918.261 420,918.261C430.078,918.261 438.261,910.078 438.261,900C438.261,889.922 430.078,881.739 420,881.739Z" style="fill:rgb(19,50,87);"/>
                    </g>
                    <g transform="matrix(2.56,0,0,1.23797,-3635.2,-1329.74)">
                        <rect x="1640" y="1900" width="100" height="69.792" style="fill:rgb(0,47,94);"/>
                    </g>
                    <g transform="matrix(2.56,0,0,1.8,-3328,-2419.2)">
                        <path d="M1780,1912L1780,1960L2160,1960C2141.91,1952.41 2130.43,1937.95 2130,1912L1780,1912Z" style="fill:rgb(0,47,94);"/>
                    </g>
                    <g transform="matrix(2.56,0,0,1.6,-6648.58,-81.6)">
                        <path d="M3207.1,690L3207.1,510" style="fill:none;stroke:rgb(0,47,94);stroke-width:18.92px;stroke-miterlimit:1.5;"/>
                    </g>
                    <g transform="matrix(2.56,0,0,1.44,-6674.18,0)">
                        <path d="M2877.1,290C2877.1,290 2925.03,306.492 3007.1,350C3089.18,393.508 3190.37,491.396 3207.1,510" style="fill:none;stroke:rgb(0,47,94);stroke-width:30px;stroke-miterlimit:1.5;"/>
                    </g>
                    <g transform="matrix(2.45828,-0.121111,0.174793,1.12258,-6485.43,581.713)">
                        <path d="M3287.1,550L3357.1,600C3357.1,600 3335.53,609.062 3307.1,600C3290.76,594.791 3276.69,585.658 3267.64,578.902C3265.35,577.095 3264.02,573.938 3264.12,570.599C3264.22,567.26 3265.75,564.236 3268.13,562.646L3287.1,550Z" style="fill:rgb(0,47,94);"/>
                    </g>
                    <g transform="matrix(2.56,0,0,1.44,-6656,14.4)">
                        <path d="M3280,600C3285.52,600 3290,604.477 3290,610L3290,640C3290,645.523 3285.52,650 3280,650L3260,650C3254.48,650 3250,645.523 3250,640L3250,610C3250,604.477 3254.48,600 3260,600L3280,600ZM3280,610L3260,610L3260,640L3280,640L3280,610Z" style="fill:rgb(0,47,94);"/>
                    </g>
                </g>
            </g>
        </g>
        <g id="_2--Dopelstockwagen" serif:id="2--Dopelstockwagen">
        </g>
        <g id="_1--Lokomotive" serif:id="1--Lokomotive">
        </g>
    </g>
</svg>
