<?xml version="1.0" encoding="UTF-8" standalone="no"?>
<!DOCTYPE svg PUBLIC "-//W3C//DTD SVG 1.1//EN" "http://www.w3.org/Graphics/SVG/1.1/DTD/svg11.dtd">
<svg width="100%" height="100%" viewBox="0 0 1000 1000" version="1.1" xmlns="http://www.w3.org/2000/svg" xmlns:xlink="http://www.w3.org/1999/xlink" xml:space="preserve" xmlns:serif="http://www.serif.com/" style="fill-rule:evenodd;clip-rule:evenodd;stroke-linejoin:round;stroke-miterlimit:1;">
    <g id="_4--LRV" serif:id="4--LRV">
    </g>
    <g id="_3--Highspeed" serif:id="3--Highspeed">
    </g>
    <g id="_2--Dopelstockwagen" serif:id="2--Dopelstockwagen">
    </g>
    <g id="_1-3--Lokomotive" serif:id="1-3--Lokomotive" transform="matrix(0.390625,0,0,0.694444,0,4.54747e-13)">
        <g id="_1--Lokomotive" serif:id="1--Lokomotive">
            <rect id="_1-3--Lokomotive1" serif:id="1-3--Lokomotive" x="0" y="0" width="2560" height="1440" style="fill:none;"/>
            <clipPath id="_clip1">
                <rect id="_1-3--Lokomotive2" serif:id="1-3--Lokomotive" x="0" y="0" width="2560" height="1440"/>
            </clipPath>
            <g clip-path="url(#_clip1)">
                <g id="LOGO--Grenze" transform="matrix(2.56,0,0,1.44,3.63798e-12,-2102.4)">
                    <path d="M500,1460C775.958,1460 1000,1684.04 1000,1960C1000,2235.96 775.958,2460 500,2460C224.042,2460 0,2235.96 0,1960C0,1684.04 224.042,1460 500,1460ZM500,1500C246.119,1500 40,1706.12 40,1960C40,2213.88 246.119,2420 500,2420C753.881,2420 960,2213.88 960,1960C960,1706.12 753.881,1500 500,1500Z" style="fill:rgb(19,50,87);"/>
                </g>
                <g transform="matrix(2.6624,0,0,1.4976,738.304,-468.415)">
                    <path d="M511.154,880.085L511.154,918.546L463.077,918.546L463.077,1024.32L280.385,1024.12L241.923,976.239C110.197,976.239 -219.615,976.239 -219.615,976.239" style="fill:none;stroke:rgb(19,50,87);stroke-width:28.85px;"/>
                </g>
                <g transform="matrix(2.98841,-5.45042e-17,-9.30965e-17,1.4976,332.967,-240.768)">
                    <path d="M591.028,737.692L-77.154,737.692" style="fill:none;stroke:rgb(19,50,87);stroke-width:18.09px;"/>
                </g>
                <g transform="matrix(1.77493,0,0,1.4976,1066.67,28.8)">
                    <path d="M653.846,750L-427.885,750" style="fill:none;stroke:rgb(19,50,87);stroke-width:39.6px;"/>
                </g>
                <g transform="matrix(3.84,0,0,2.16,-332.8,-878.4)">
                    <path d="M420,860C442.077,860 460,877.923 460,900C460,922.077 442.077,940 420,940C397.923,940 380,922.077 380,900C380,877.923 397.923,860 420,860ZM420,880C408.962,880 400,888.962 400,900C400,911.038 408.962,920 420,920C431.038,920 440,911.038 440,900C440,888.962 431.038,880 420,880Z" style="fill:rgb(19,50,87);"/>
                </g>
                <g transform="matrix(2.6624,-5.5898e-16,-1.30584e-15,1.50261,365.568,-266.087)">
                    <path d="M680,800L680,857.5" style="fill:none;stroke:rgb(19,50,87);stroke-width:24px;stroke-linecap:round;"/>
                </g>
                <g transform="matrix(2.3296,0,0,1.4976,591.872,-261.12)">
                    <path d="M680,828.205L592.088,828.205" style="fill:none;stroke:rgb(19,50,87);stroke-width:35.82px;"/>
                </g>
                <g transform="matrix(3.84,0,0,2.1672,-921.6,-884.592)">
                    <path d="M420,860C442.077,860 460,877.923 460,900C460,922.077 442.077,940 420,940C397.923,940 380,922.077 380,900C380,877.923 397.923,860 420,860ZM420,879.934C408.943,879.934 400,888.943 400,900C400,911.057 408.943,920.066 420,920.066C431.057,920.066 440,911.057 440,900C440,888.943 431.057,879.934 420,879.934Z" style="fill:rgb(19,50,87);"/>
                </g>
                <g transform="matrix(2.304,0,0,1.23797,-2908.16,-1329.74)">
                    <rect x="1640" y="1900" width="100" height="69.792" style="fill:rgb(0,47,94);"/>
                </g>
                <g transform="matrix(2.56,0,0,1.44,0,-3369.6)">
                    <path d="M180,3035.2L180,3100L100,3100" style="fill:none;stroke:rgb(0,47,94);stroke-width:15px;stroke-linecap:round;stroke-miterlimit:1.5;"/>
                </g>
                <g transform="matrix(2.56,0,0,1.44,0,-3369.6)">
                    <path d="M720,2930L720,2740L300,2740L300,2660L330,2660L380,2640L380,2620L90,2620" style="fill:none;stroke:rgb(0,47,94);stroke-width:30px;stroke-miterlimit:1.5;"/>
                </g>
                <g transform="matrix(2.56,0,0,1.296,-3.63798e-14,-2988)">
                    <rect x="70" y="2650" width="200" height="100" style="fill:none;stroke:rgb(0,47,94);stroke-width:15.77px;stroke-linecap:round;stroke-miterlimit:1.5;"/>
                </g>
                <g transform="matrix(2.56,0,0,1.44,-25.6,-3369.6)">
                    <path d="M130,2650L130,2740" style="fill:none;stroke:rgb(0,47,94);stroke-width:15px;stroke-linecap:round;stroke-miterlimit:1.5;"/>
                </g>
                <g transform="matrix(2.56,0,0,1.44,217.088,-3369.6)">
                    <path d="M130,2650L130,2740" style="fill:none;stroke:rgb(0,47,94);stroke-width:15px;stroke-linecap:round;stroke-miterlimit:1.5;"/>
                </g>
                <g transform="matrix(3.584,0,0,2.16,-389.12,-5227.2)">
                    <path d="M330,2570L360,2570L380,2560L380,2590L360,2580L330,2580L330,2570Z" style="fill:rgb(0,47,94);"/>
                </g>
                <g transform="matrix(3.584,0,0,2.16,-389.12,-5248.8)">
                    <path d="M340,2590L340,2600L330,2600L330,2610L360,2610L360,2600L350,2600L350,2590L340,2590Z" style="fill:rgb(0,47,94);"/>
                </g>
                <g transform="matrix(2.56,0,0,1.44,0,-3369.6)">
                    <path d="M320,2750L320,2940" style="fill:none;stroke:rgb(0,47,94);stroke-width:25px;stroke-miterlimit:1.5;"/>
                </g>
                <g transform="matrix(2.56,0,0,1.44,0,-3369.6)">
                    <path d="M320,2800L610,2800L640,2850L640,3050L610,3050" style="fill:none;stroke:rgb(0,47,94);stroke-width:15px;stroke-miterlimit:1.5;"/>
                </g>
                <g transform="matrix(2.56,0,0,1.44,0,-3369.6)">
                    <path d="M550,2803.6L550,2940" style="fill:none;stroke:rgb(0,47,94);stroke-width:15px;stroke-linecap:round;stroke-miterlimit:1.5;"/>
                </g>
                <g transform="matrix(2.56,0,0,1.44,691.2,-3369.6)">
                    <path d="M550,2803.6L550,2940" style="fill:none;stroke:rgb(0,47,94);stroke-width:15px;stroke-linecap:round;stroke-miterlimit:1.5;"/>
                </g>
                <g transform="matrix(2.56,0,0,1.44,-294.4,-3369.6)">
                    <path d="M550,2803.6L550,2940" style="fill:none;stroke:rgb(0,47,94);stroke-width:15px;stroke-linecap:round;stroke-miterlimit:1.5;"/>
                </g>
                <g transform="matrix(2.56,0,0,1.44,0,-3369.6)">
                    <path d="M640,2970L570,2870L320,2870" style="fill:none;stroke:rgb(0,47,94);stroke-width:15px;stroke-linecap:round;stroke-miterlimit:1.5;"/>
                </g>
                <g transform="matrix(2.56,0,0,1.44,0,-3369.6)">
                    <path d="M610,3080L610,3050L570,2990L50,2990" style="fill:none;stroke:rgb(0,47,94);stroke-width:30px;stroke-miterlimit:1.5;"/>
                </g>
                <g transform="matrix(2.56,0,0,1.44,0,-3369.6)">
                    <path d="M610,3050L770,3050L770,3010L590,3010" style="fill:none;stroke:rgb(0,47,94);stroke-width:30px;stroke-miterlimit:1.5;"/>
                </g>
                <g transform="matrix(2.56,0,0,0.96,0,-2112)">
                    <path d="M280,2620L280,2560L110,2560" style="fill:none;stroke:rgb(0,47,94);stroke-width:23.53px;stroke-miterlimit:1.5;"/>
                </g>
            </g>
        </g>
    </g>
</svg>
