<?xml version="1.0" encoding="UTF-8" standalone="no"?>
<!DOCTYPE svg PUBLIC "-//W3C//DTD SVG 1.1//EN" "http://www.w3.org/Graphics/SVG/1.1/DTD/svg11.dtd">
<svg width="100%" height="100%" viewBox="0 0 1000 1000" version="1.1" xmlns="http://www.w3.org/2000/svg" xmlns:xlink="http://www.w3.org/1999/xlink" xml:space="preserve" xmlns:serif="http://www.serif.com/" style="fill-rule:evenodd;clip-rule:evenodd;stroke-linejoin:round;stroke-miterlimit:1;">
    <g transform="matrix(1,0,0,1,-1300,-1115.27)">
        <g id="_4--LRV" serif:id="4--LRV">
        </g>
        <g id="_3--Highspeed" serif:id="3--Highspeed">
        </g>
        <g id="_2--Dopelstockwagen" serif:id="2--Dopelstockwagen">
        </g>
        <g id="_2-3--Doppelstock" serif:id="2-3--Doppelstock" transform="matrix(0.390625,0,0,0.694444,1300,1115.27)">
            <rect x="0" y="0" width="2560" height="1440" style="fill:none;"/>
            <clipPath id="_clip1">
                <rect x="0" y="0" width="2560" height="1440"/>
            </clipPath>
            <g clip-path="url(#_clip1)">
                <g id="LOGO--Grenze" transform="matrix(2.56,0,0,1.44,3.63798e-12,-2102.4)">
                    <path d="M500,1460C775.958,1460 1000,1684.04 1000,1960C1000,2235.96 775.958,2460 500,2460C224.042,2460 0,2235.96 0,1960C0,1684.04 224.042,1460 500,1460ZM500,1500C246.119,1500 40,1706.12 40,1960C40,2213.88 246.119,2420 500,2420C753.881,2420 960,2213.88 960,1960C960,1706.12 753.881,1500 500,1500Z" style="fill:rgb(19,50,87);"/>
                </g>
                <g transform="matrix(2.58409,0,0,1.45355,796.401,-420.756)">
                    <path d="M-169.499,477.696L220.648,477.696C314.027,477.696 397.195,536.749 427.976,624.91C463.575,726.862 504.161,848.632 504.161,873.966C504.161,919.094 533.881,923.5 533.881,923.5L533.881,1002.75L266.399,1002.75L266.399,1002.68C266.399,989.56 261.188,976.98 251.913,967.706C242.638,958.431 230.059,953.22 216.942,953.22L-61.116,953.22C-74.199,953.22 -86.738,958.458 -95.933,967.764C-105.128,977.07 -110.215,989.671 -110.058,1002.75C-109.924,1013.93 -109.821,1022.57 -109.821,1022.57L-238.608,1022.57" style="fill:none;stroke:rgb(19,50,87);stroke-width:34.67px;"/>
                </g>
                <g transform="matrix(4.59843,0,0,1.15735,-621.366,-115.661)">
                    <path d="M146.26,659.834L213.065,659.834C216.14,659.834 218.632,665.404 218.632,672.276C218.632,727.726 218.632,952.032 218.632,1007.48C218.632,1010.78 218.046,1013.95 217.002,1016.28C215.958,1018.61 214.542,1019.93 213.065,1019.93C201.357,1019.93 175.255,1019.93 175.255,1019.93" style="fill:none;stroke:rgb(19,50,87);stroke-width:21.56px;"/>
                </g>
                <g transform="matrix(4.86808,0,0,0.363133,-680.32,185.484)">
                    <path d="M175.197,559.893L213.374,559.893C216.278,559.893 218.632,577.647 218.632,599.548L218.632,1035.75C218.632,1046.27 218.078,1056.36 217.092,1063.79C216.106,1071.23 214.768,1075.41 213.374,1075.41C198.684,1075.41 158.287,1075.41 158.287,1075.41" style="fill:none;stroke:rgb(19,50,87);stroke-width:14.74px;"/>
                </g>
                <g transform="matrix(5.29739,0,0,0.363133,66.5396,444.684)">
                    <path d="M136.595,1075.41C135.313,1075.41 134.084,1071.23 133.178,1063.79C132.271,1056.36 131.762,1046.27 131.762,1035.75L131.762,599.548C131.762,589.03 132.271,578.944 133.178,571.507C134.084,564.071 135.313,559.893 136.595,559.893L213.8,559.893C215.082,559.893 216.311,564.071 217.217,571.507C218.123,578.944 218.632,589.03 218.632,599.548L218.632,1035.75C218.632,1046.27 218.123,1056.36 217.217,1063.79C216.311,1071.23 215.082,1075.41 213.8,1075.41L136.595,1075.41ZM141.427,639.203L141.427,996.096L208.967,996.096L208.967,639.203L141.427,639.203Z" style="fill:rgb(19,50,87);"/>
                </g>
                <g transform="matrix(2.93985,0,0,0.139667,1148.05,785.802)">
                    <path d="M140.47,1075.41C135.661,1075.41 131.762,1029.25 131.762,972.303C131.762,882.459 131.762,752.84 131.762,662.995C131.762,606.053 135.661,559.893 140.47,559.893C157.117,559.893 193.278,559.893 209.925,559.893C214.734,559.893 218.632,606.053 218.632,662.995C218.632,752.84 218.632,882.459 218.632,972.303C218.632,1029.25 214.734,1075.41 209.925,1075.41C193.278,1075.41 157.117,1075.41 140.47,1075.41Z" style="fill:none;stroke:rgb(19,50,87);stroke-width:18.41px;"/>
                </g>
                <g transform="matrix(1.72273,0,0,1.45355,1115.11,61.8353)">
                    <path d="M500,750L173.077,750" style="fill:none;stroke:rgb(19,50,87);stroke-width:24.29px;"/>
                </g>
                <g transform="matrix(1.65647,0,0,0.931765,-1286.78,266.824)">
                    <path d="M2059.55,671.818L2020.05,671.818C2006.82,671.818 1995.11,663.287 1991.04,650.7C1920.34,428.169 1860.88,295.146 1813.63,205.473C1768.9,121.567 1681.56,69.151 1586.47,69.151C1338.86,69.091 915.909,69.091 915.909,69.091" style="fill:none;stroke:rgb(0,47,94);stroke-width:23.18px;stroke-linecap:round;stroke-miterlimit:1.5;"/>
                </g>
                <g transform="matrix(1.77493,0,0,1.4976,1066.67,28.8)">
                    <path d="M653.846,750L-427.885,750" style="fill:none;stroke:rgb(19,50,87);stroke-width:39.6px;"/>
                </g>
                <g transform="matrix(3.5328,0,0,1.9872,-191.488,-715.968)">
                    <path d="M420,860C442.077,860 460,877.923 460,900C460,922.077 442.077,940 420,940C397.923,940 380,922.077 380,900C380,877.923 397.923,860 420,860ZM420,881.739C409.922,881.739 401.739,889.922 401.739,900C401.739,910.078 409.922,918.261 420,918.261C430.078,918.261 438.261,910.078 438.261,900C438.261,889.922 430.078,881.739 420,881.739Z" style="fill:rgb(19,50,87);"/>
                </g>
                <g transform="matrix(3.5328,0,0,1.9872,-780.288,-715.968)">
                    <path d="M420,860C442.077,860 460,877.923 460,900C460,922.077 442.077,940 420,940C397.923,940 380,922.077 380,900C380,877.923 397.923,860 420,860ZM420,881.739C409.922,881.739 401.739,889.922 401.739,900C401.739,910.078 409.922,918.261 420,918.261C430.078,918.261 438.261,910.078 438.261,900C438.261,889.922 430.078,881.739 420,881.739Z" style="fill:rgb(19,50,87);"/>
                </g>
                <g transform="matrix(2.56,0,0,1.23797,-3328,-1329.74)">
                    <rect x="1640" y="1900" width="100" height="69.792" style="fill:rgb(0,47,94);"/>
                </g>
                <g transform="matrix(2.56,0,0,1.8,-3328,-2419.2)">
                    <path d="M1920,1920L1930,1960L2130,1960L2120,1920L1920,1920Z" style="fill:rgb(0,47,94);"/>
                </g>
                <g transform="matrix(2.56,0,0,1.44,-3328,-1728)">
                    <path d="M1899.77,1580L1980,1580C1980,1580 2009.11,1646.54 2030,1700C2004.13,1700 2003.4,1699.8 2003.4,1699.8C2003.4,1699.8 1955.53,1649.66 1900,1611.34C1900,1594.35 1899.77,1580 1899.77,1580" style="fill:none;stroke:rgb(0,47,94);stroke-width:15px;stroke-linecap:round;stroke-miterlimit:1.5;"/>
                </g>
            </g>
        </g>
        <g id="_1--Lokomotive" serif:id="1--Lokomotive">
        </g>
    </g>
</svg>
