<?xml version="1.0" encoding="UTF-8"?>
<svg id="Ebene_1" xmlns="http://www.w3.org/2000/svg" version="1.1" viewBox="0 0 386.53 205.17">
  <!-- Generator: Adobe Illustrator 30.3.0, SVG Export Plug-In . SVG Version: 2.1.3 Build 182)  -->
  <defs>
    <style>
      .st0 {
        fill: #dae7f1;
      }

      .st1 {
        fill: #266083;
      }
    </style>
  </defs>
  <path class="st0" d="M372.98,163.03c-1.49-1.87-8.98-9.75-10.81-11.62C282.76,77.14,210.39,6.77,54.16,5.05l-21.54-.13-2.21,24.14,26.87.7c128.75,0,201.66,60.82,272.66,125.47,8.42,7.12,16.27,13.04,16.23,16.89-.04,4.47-2.53,4.67-6.99,4.75-97.75,0-238.28-.49-332.51-.49l-3.88,24.03,347.96-.36c15.2,0,28.85-4.78,29.9-20.15.43-6.28-3.1-10.87-6.04-15.17"/>
  <circle id="hotspot-8" class="st1" cx="46.56" cy="188.32" r="3.96"/>
  <circle id="hotspot-7" class="st1" cx="145.55" cy="188.32" r="3.96"/>
  <circle id="hotspot-6" class="st1" cx="239.87" cy="188.32" r="3.96"/>
  <circle id="hotspot-5" class="st1" cx="335.16" cy="188.32" r="3.96"/>
  <circle id="hotspot-4" class="st1" cx="319.81" cy="129.39" r="3.96"/>
  <circle id="hotspot-3" class="st1" cx="252.72" cy="76.14" r="3.96"/>
  <circle id="hotspot-2" class="st1" cx="170.71" cy="34.98" r="3.96"/>
  <circle class="st1" cx="72.69" cy="17.45" r="3.96"/>
</svg>
