<?xml version="1.0" encoding="UTF-8"?>
<svg id="Ebene_1" xmlns="http://www.w3.org/2000/svg" version="1.1" viewBox="0 0 386.53 205.17">
  <!-- Generator: Adobe Illustrator 30.3.0, SVG Export Plug-In . SVG Version: 2.1.3 Build 182)  -->
  <defs>
    <style>
      .st0 {
        fill: #00325f;
      }

      .st1 {
        fill: #266083;
      }
    </style>
  </defs>
  <path class="st0" d="M361.01,162.27c-2.42-2.91-6.34-6.69-10.53-10.9C290.53,97.78,208.59,10.76,53.61,12.79h-21.75l-1.78,8.66h27.31c128.42-1.09,203,59.87,275.96,125.53,13.02,11.71,27.06,23.9,28.59,30.94,1.8,8.27-18.29,6.2-22.75,6.28-97.75,0-238.7-.23-332.93-.23l-1.69,8.24,344.67-.02c9.16-.46,13.89,0,18.31-5.77,5.61-7.32,1.27-13.73-1.65-18.17"/>
  <circle id="hotspot-8" class="st1" cx="46.56" cy="188.32" r="3.96"/>
  <circle id="hotspot-7" class="st1" cx="145.55" cy="188.32" r="3.96"/>
  <circle id="hotspot-6" class="st1" cx="239.87" cy="188.32" r="3.96"/>
  <circle id="hotspot-5" class="st1" cx="335.16" cy="188.32" r="3.96"/>
  <circle id="hotspot-4" class="st1" cx="319.81" cy="129.39" r="3.96"/>
  <circle id="hotspot-3" class="st1" cx="252.72" cy="76.14" r="3.96"/>
  <circle id="hotspot-2" class="st1" cx="170.71" cy="34.98" r="3.96"/>
  <circle class="st1" cx="72.69" cy="17.45" r="3.96"/>
</svg>