<?xml version="1.0" encoding="UTF-8"?>
<svg id="Ebene_1" xmlns="http://www.w3.org/2000/svg" version="1.1" viewBox="0 0 386.53 205.17">
  <!-- Generator: Adobe Illustrator 30.3.0, SVG Export Plug-In . SVG Version: 2.1.3 Build 182)  -->
  <defs>
    <style>
      .st0 {
        fill: #266083;
      }

      .st1 {
        fill: #dae7f1;
      }
    </style>
  </defs>
  <path class="st1" d="M379.56,160.2c-1.49-1.87-3.2-3.55-5.13-4.99C296.69,80.79,211.51.73,55.07.73h-21.21l-6.45,33.14h27.67c128.75,0,197.77,60.55,271.02,123.53,1.6,1.5,2.62,3.6,2.62,5.95,0,4.49-3.61,8.11-8.07,8.19-97.75,0-219.33,0-313.56,0L.68,204.67h357.29c15.2,0,27.49-12.31,27.49-27.49,0-6.43-2.22-12.32-5.9-16.99"/>
  <circle id="hotspot-8" class="st0" cx="46.56" cy="188.32" r="3.96"/>
  <circle id="hotspot-7" class="st0" cx="145.55" cy="188.32" r="3.96"/>
  <circle id="hotspot-6" class="st0" cx="239.87" cy="188.32" r="3.96"/>
  <circle id="hotspot-5" class="st0" cx="335.16" cy="188.32" r="3.96"/>
  <circle id="hotspot-4" class="st0" cx="319.81" cy="129.39" r="3.96"/>
  <circle id="hotspot-3" class="st0" cx="252.72" cy="76.14" r="3.96"/>
  <circle id="hotspot-2" class="st0" cx="170.71" cy="34.98" r="3.96"/>
  <circle class="st0" cx="72.69" cy="17.45" r="3.96"/>
</svg>